<?xml version="1.0" encoding="UTF-8" standalone="no"?>
<svg
   xmlns:dc="http://purl.org/dc/elements/1.1/"
   xmlns:cc="http://creativecommons.org/ns#"
   xmlns:rdf="http://www.w3.org/1999/02/22-rdf-syntax-ns#"
   xmlns:svg="http://www.w3.org/2000/svg"
   xmlns="http://www.w3.org/2000/svg"
   viewBox="0 0 340.06668 480"
   height="480"
   width="340.06668"
   xml:space="preserve"
   id="svg2"
   version="1.1"><metadata
     id="metadata8"><rdf:RDF><cc:Work
         rdf:about=""><dc:format>image/svg+xml</dc:format><dc:type
           rdf:resource="http://purl.org/dc/dcmitype/StillImage" /></cc:Work></rdf:RDF></metadata><defs
     id="defs6" /><g
     transform="matrix(1.3333333,0,0,-1.3333333,0,480)"
     id="g10"><g
       transform="scale(0.1)"
       id="g12"><path
         id="path14"
         style="fill:#376fbc;fill-opacity:1;fill-rule:nonzero;stroke:none"
         d="M 232.109,289.148 0,2892.52 H 2550.47 L 2318.12,289.551 1273.68,0 232.109,289.148" /><path
         id="path16"
         style="fill:#61a3de;fill-opacity:1;fill-rule:nonzero;stroke:none"
         d="M 1275.24,221.32 2119.2,455.301 2317.76,2679.65 H 1275.24 V 221.32" /><path
         id="path18"
         style="fill:#eeeded;fill-opacity:1;fill-rule:nonzero;stroke:none"
         d="M 446.488,2078.75 415.238,2380 H 2135.24 l -20,-348.75 -727.5,-321.25 h 697.5 l -75,-990 -703,-188.75 -729.502,176.871 -45,501.879 h 322.5 l 17.5,-265 422.502,-78.75 390,119.371 17.5,424.379 H 505.238 l -22.5,315 792.502,347.5 -828.752,6.25" /><path
         id="path20"
         style="fill:#cfcecd;fill-opacity:1;fill-rule:nonzero;stroke:none"
         d="m 482.738,1725 22.5,-315 h 770.002 v 662.5 L 482.738,1725" /><path
         id="path22"
         style="fill:#cfcecd;fill-opacity:1;fill-rule:nonzero;stroke:none"
         d="m 872.738,945 -17.5,265 h -322.5 l 45,-501.879 697.502,-169.109 V 869.98 L 872.738,945" /><path
         id="path24"
         style="fill:#cfcecd;fill-opacity:1;fill-rule:nonzero;stroke:none"
         d="m 415.238,2380 31.25,-301.25 828.752,-6.25 V 2380 H 415.238" /><path
         id="path26"
         style="fill:#100f0d;fill-opacity:1;fill-rule:nonzero;stroke:none"
         d="m 1515.24,3480 v 120 h -480 v -280 h 330 v -90 h -340 v -110 h 480 v 290 h -340 v 70 h 350" /><path
         id="path28"
         style="fill:#100f0d;fill-opacity:1;fill-rule:nonzero;stroke:none"
         d="M 645.238,3317.27 V 3230 h 340 v -110 h -480 V 3407.27 3600 h 470 v -120 h -330 v -162.73" /><path
         id="path30"
         style="fill:#100f0d;fill-opacity:1;fill-rule:nonzero;stroke:none"
         d="m 2045.24,3480 v 120 h -480 v -280 h 330 v -90 h -340 v -110 h 480 v 290 h -340 v 70 h 350" /></g></g></svg>