<?xml version="1.0" encoding="UTF-8" standalone="no"?>
<svg
   xmlns:dc="http://purl.org/dc/elements/1.1/"
   xmlns:cc="http://creativecommons.org/ns#"
   xmlns:rdf="http://www.w3.org/1999/02/22-rdf-syntax-ns#"
   xmlns:svg="http://www.w3.org/2000/svg"
   xmlns="http://www.w3.org/2000/svg"
   viewBox="0 0 486.66666 203.26666"
   height="203.26666"
   width="486.66666"
   xml:space="preserve"
   id="svg2"
   version="1.1"><metadata
     id="metadata8"><rdf:RDF><cc:Work
         rdf:about=""><dc:format>image/svg+xml</dc:format><dc:type
           rdf:resource="http://purl.org/dc/dcmitype/StillImage" /></cc:Work></rdf:RDF></metadata><defs
     id="defs6" /><g
     transform="matrix(1.3333333,0,0,-1.3333333,0,203.26667)"
     id="g10"><g
       transform="scale(0.1)"
       id="g12"><path
         id="path14"
         style="fill:#2f2416;fill-opacity:1;fill-rule:nonzero;stroke:none"
         d="m 2457.95,1001.22 c 26.14,-33.47 53.82,-80.025 53.82,-146.939 0,-161.461 -126.56,-256.011 -309.81,-256.011 -46.6,0 -88.78,5.804 -114.94,13.066 L 2039,534.254 2181.54,525.547 C 2433.22,509.512 2581.55,502.219 2581.55,308.82 2581.55,141.488 2434.66,47 2181.54,47 c -263.28,0 -363.65,66.922 -363.65,181.82 0,65.489 29.1,100.321 80.01,148.399 -48.02,20.293 -64,56.64 -64,95.929 0,32.032 15.98,61.114 42.21,88.774 26.17,27.609 55.25,55.285 90.17,87.277 -71.27,34.906 -125.1,110.551 -125.1,218.211 0,167.26 110.56,282.14 333.08,282.14 62.56,0 100.4,-5.76 133.86,-14.54 h 283.67 v -123.62 l -133.84,-10.18 M 2027.37,337.852 c -18.93,-23.243 -37.81,-47.942 -37.81,-77.082 0,-58.141 74.15,-75.641 176,-75.641 84.37,0 199.3,5.91 199.3,84.351 0,46.629 -55.29,49.508 -125.16,53.891 l -212.33,14.481 z m 160.06,667.768 c -80.03,0 -139.63,-39.3 -139.63,-133.878 0,-71.258 39.28,-120.722 135.32,-120.722 81.4,0 136.69,47.964 136.69,123.668 0,85.789 -49.48,130.922 -132.38,130.922 v 0.01" /><path
         id="path16"
         style="fill:#2f2416;fill-opacity:1;fill-rule:nonzero;stroke:none"
         d="M 2660.16,391.391 V 506.25 l 74.21,10.148 c 20.38,2.954 23.27,7.282 23.27,29.153 v 427.66 c 0,15.969 -4.35,26.195 -18.94,30.519 l -78.54,27.67 16,117.78 h 301.13 V 545.543 c 0,-23.324 1.41,-26.203 23.29,-29.152 l 74.19,-10.153 V 391.379 h -414.62 m 187.69,874.181 c -82.93,0 -130.92,48.05 -130.92,130.99 0,82.84 47.99,127.97 130.92,127.97 84.38,0 132.38,-45.13 132.38,-127.97 0,-82.94 -48,-130.99 -132.38,-130.99" /><path
         id="path18"
         style="fill:#2f2416;fill-opacity:1;fill-rule:nonzero;stroke:none"
         d="m 3649.99,447.762 c -62.57,-30.512 -154.19,-58.153 -237.15,-58.153 -173.09,0 -238.53,69.75 -238.53,234.2 v 381.081 c 0,8.72 0,14.56 -11.69,14.56 h -101.8 v 129.46 c 128.04,14.58 178.92,78.6 194.92,237.15 h 138.21 v -206.63 c 0,-10.14 0,-14.54 11.65,-14.54 h 205.09 V 1019.45 H 3393.96 V 671.809 c 0,-85.836 20.39,-119.266 98.89,-119.266 40.78,0 82.92,10.152 117.84,23.254 L 3650,447.75" /><path
         id="path20"
         style="fill:#ee2d2c;fill-opacity:1;fill-rule:nonzero;stroke:none"
         d="M 1494.66,829.504 829.492,1494.58 c -38.269,38.31 -100.394,38.31 -138.715,0 L 552.668,1356.46 727.859,1181.27 c 40.727,13.75 87.411,4.53 119.86,-27.93 32.617,-32.66 41.773,-79.74 27.676,-120.61 L 1044.25,863.883 c 40.85,14.078 87.98,4.98 120.6,-27.695 45.61,-45.594 45.61,-119.469 0,-165.071 -45.61,-45.617 -119.48,-45.617 -165.12,0 -34.292,34.317 -42.773,84.699 -25.406,126.949 L 816.848,955.543 816.836,541.148 c 11.117,-5.503 21.609,-12.847 30.875,-22.078 45.594,-45.582 45.594,-119.441 0,-165.109 -45.606,-45.582 -119.512,-45.582 -165.07,0 -45.598,45.66 -45.598,119.519 0,165.109 11.269,11.25 24.308,19.766 38.222,25.473 v 418.246 c -13.922,5.684 -26.945,14.133 -38.23,25.473 -34.539,34.508 -42.856,85.198 -25.145,127.618 L 484.785,1288.61 28.7383,832.574 c -38.31643,-38.336 -38.31643,-100.457 0,-138.765 L 693.859,28.7305 c 38.293,-38.30863 100.395,-38.30863 138.743,0 L 1494.65,690.664 c 38.3,38.324 38.3,100.469 0,138.781" /></g></g></svg>