<?xml version="1.0" encoding="UTF-8" standalone="no"?>
<svg
   xmlns:dc="http://purl.org/dc/elements/1.1/"
   xmlns:cc="http://creativecommons.org/ns#"
   xmlns:rdf="http://www.w3.org/1999/02/22-rdf-syntax-ns#"
   xmlns:svg="http://www.w3.org/2000/svg"
   xmlns="http://www.w3.org/2000/svg"
   viewBox="0 0 340.06668 480"
   height="480"
   width="340.06668"
   xml:space="preserve"
   id="svg2"
   version="1.1"><metadata
     id="metadata8"><rdf:RDF><cc:Work
         rdf:about=""><dc:format>image/svg+xml</dc:format><dc:type
           rdf:resource="http://purl.org/dc/dcmitype/StillImage" /></cc:Work></rdf:RDF></metadata><defs
     id="defs6" /><g
     transform="matrix(1.3333333,0,0,-1.3333333,0,480)"
     id="g10"><g
       transform="scale(0.1)"
       id="g12"><path
         id="path14"
         style="fill:#e53d20;fill-opacity:1;fill-rule:nonzero;stroke:none"
         d="M 232.109,289.148 0,2892.52 H 2550.47 L 2318.12,289.551 1273.68,0 232.109,289.148" /><path
         id="path16"
         style="fill:#f15123;fill-opacity:1;fill-rule:nonzero;stroke:none"
         d="M 1275.24,221.32 2119.2,455.301 2317.76,2679.65 H 1275.24 V 221.32" /><path
         id="path18"
         style="fill:#eeeded;fill-opacity:1;fill-rule:nonzero;stroke:none"
         d="M 1275.24,1714.1 H 852.73 l -29.179,326.96 h 451.689 v 319.3 h -1.11 -799.528 l 7.644,-85.67 78.477,-879.88 h 714.517 v 319.29" /><path
         id="path20"
         style="fill:#eeeded;fill-opacity:1;fill-rule:nonzero;stroke:none"
         d="m 1275.24,884.859 -1.4,-0.371 -355.602,96.024 -22.73,254.648 H 722.715 574.988 l 44.731,-501.34 654.051,-181.558 1.47,0.398 v 332.199" /><path
         id="path22"
         style="fill:#100f0d;fill-opacity:1;fill-rule:nonzero;stroke:none"
         d="M 237.297,3600 H 399.559 V 3439.69 H 547.988 V 3600 H 710.254 V 3114.54 H 547.996 V 3277.1 H 399.566 V 3114.54 H 237.305 V 3600 h -0.008" /><path
         id="path24"
         style="fill:#100f0d;fill-opacity:1;fill-rule:nonzero;stroke:none"
         d="M 923.633,3439.01 H 780.785 V 3600 H 1228.82 V 3439.01 H 1085.91 V 3114.54 H 923.641 v 324.47 h -0.008" /><path
         id="path26"
         style="fill:#100f0d;fill-opacity:1;fill-rule:nonzero;stroke:none"
         d="m 1299.92,3600 h 169.2 l 104.07,-170.58 103.97,170.58 h 169.26 v -485.46 h -161.59 v 240.62 l -111.64,-172.61 h -2.79 l -111.71,172.61 V 3114.54 H 1299.92 V 3600" /><path
         id="path28"
         style="fill:#100f0d;fill-opacity:1;fill-rule:nonzero;stroke:none"
         d="m 1927.17,3600 h 162.31 v -325 h 228.19 v -160.46 h -390.5 V 3600" /><path
         id="path30"
         style="fill:#ffffff;fill-opacity:1;fill-rule:nonzero;stroke:none"
         d="m 1274.13,1714.1 v -319.29 h 393.18 L 1630.24,980.711 1274.13,884.59 V 552.41 l 654.57,181.41 4.8,53.95 75.03,840.59 7.79,85.74 h -86.04 -656.15" /><path
         id="path32"
         style="fill:#ffffff;fill-opacity:1;fill-rule:nonzero;stroke:none"
         d="m 1274.13,2360.36 v -319.3 h 770.22 v 0 h 1.03 l 6.4,71.77 14.55,161.86 7.64,85.67 h -799.84" /></g></g></svg>