<svg width="212" height="210" xmlns="http://www.w3.org/2000/svg">

 <g>
  <title>background</title>
  <rect fill="none" id="canvas_background" height="212" width="214" y="-1" x="-1"/>
 </g>
 <g>
  <title>Layer 1</title>
  <g id="svgg">
   <path fill-rule="evenodd" fill="#fb9343" d="m99.52438,0.21c0,0.117 -0.563,0.21 -1.268,0.21c-0.932,0 -1.299,0.083 -1.388,0.315c-0.081,0.213 -0.414,0.315 -1.021,0.315c-0.606,0 -0.94,0.103 -1.021,0.316c-0.076,0.196 -0.396,0.315 -0.848,0.315c-0.406,0 -0.886,0.158 -1.086,0.359c-0.198,0.197 -0.554,0.389 -0.792,0.425c-0.238,0.036 -0.579,0.194 -0.759,0.351c-0.179,0.156 -0.539,0.249 -0.799,0.206c-0.358,-0.059 -0.472,0.023 -0.472,0.341c0,0.304 -0.141,0.419 -0.512,0.419c-0.282,0 -0.823,0.283 -1.203,0.63c-0.379,0.346 -0.818,0.63 -0.976,0.63c-0.157,0 -0.608,0.307 -1.001,0.683c-1.121,1.068 -1.56,1.429 -1.56,1.281c0,-0.076 -0.177,0.066 -0.393,0.315c-0.215,0.249 -0.455,0.452 -0.532,0.452c-0.077,0 -0.417,0.284 -0.756,0.63c-0.339,0.347 -0.714,0.631 -0.833,0.631c-0.12,0 -0.217,0.094 -0.217,0.21c0,0.273 -0.898,1.171 -1.103,1.103c-0.087,-0.029 -0.158,0.07 -0.158,0.22c0,0.276 -0.436,0.926 -1.103,1.643c-0.202,0.217 -0.368,0.49 -0.368,0.605c0,0.116 -0.141,0.21 -0.315,0.21c-0.173,0 -0.315,0.132 -0.315,0.293c0,0.161 -0.142,0.347 -0.315,0.413c-0.173,0.067 -0.315,0.256 -0.315,0.421c0,0.164 -0.142,0.353 -0.315,0.42c-0.173,0.066 -0.315,0.251 -0.315,0.41c0,0.16 -0.189,0.508 -0.42,0.774c-0.232,0.267 -0.421,0.601 -0.421,0.742c0,0.142 -0.141,0.375 -0.315,0.519c-0.173,0.144 -0.315,0.523 -0.315,0.843c0,0.324 -0.14,0.636 -0.315,0.703c-0.173,0.067 -0.315,0.361 -0.315,0.653c0,0.333 -0.118,0.532 -0.315,0.532c-0.234,0 -0.315,0.245 -0.315,0.945c0,0.76 -0.072,0.946 -0.368,0.946c-0.274,0 -0.382,0.199 -0.424,0.781c-0.03,0.43 -0.179,0.85 -0.329,0.935c-0.159,0.089 -0.295,0.616 -0.324,1.26c-0.028,0.609 -0.163,1.243 -0.301,1.408c-0.157,0.189 -0.277,1.349 -0.323,3.106c-0.041,1.542 -0.159,2.804 -0.263,2.804c-0.252,0 -0.244,1.122 0.01,1.376c0.109,0.11 0.213,1.428 0.231,2.93c0.021,1.878 0.116,2.83 0.301,3.047c0.148,0.173 0.313,0.873 0.367,1.554c0.057,0.737 0.22,1.334 0.401,1.471c0.331,0.251 1.232,1.895 1.232,2.247c0,1.669 4.433,8.364 7.755,11.712c1.337,1.347 1.946,2.343 1.434,2.343c-0.357,0 -0.048,0.215 0.447,0.31c0.627,0.121 0.896,0.316 0.754,0.545c-0.067,0.108 0.074,0.196 0.312,0.196c0.244,0 0.432,0.137 0.432,0.315c0,0.173 0.13,0.315 0.29,0.315c0.159,0 0.407,0.142 0.551,0.315c0.143,0.174 0.486,0.315 0.761,0.315c0.303,0 0.499,0.124 0.499,0.315c0,0.195 0.198,0.316 0.518,0.316c0.303,0 0.611,0.174 0.743,0.42c0.131,0.245 0.439,0.42 0.742,0.42c0.302,0 0.496,0.109 0.466,0.263c-0.03,0.146 0.196,0.291 0.509,0.327c0.31,0.036 0.676,0.201 0.814,0.368c0.138,0.166 0.523,0.302 0.856,0.302c0.387,0 0.604,0.11 0.604,0.304c0,0.213 0.297,0.323 0.998,0.368c0.73,0.047 0.993,0.148 0.978,0.379c-0.013,0.211 0.199,0.326 0.642,0.35c0.68,0.035 1.049,-0.839 1.696,-4.027c0.07,-0.346 0.26,-1.244 0.423,-1.995c0.163,-0.751 0.404,-1.886 0.537,-2.521c0.133,-0.636 0.371,-1.512 0.53,-1.948c0.159,-0.436 0.288,-1.05 0.288,-1.365c-0.001,-0.316 0.134,-0.999 0.299,-1.519c0.165,-0.52 0.501,-1.891 0.746,-3.047c0.245,-1.155 0.542,-2.406 0.658,-2.779c0.117,-0.373 0.289,-1.129 0.384,-1.68c0.189,-1.106 0.525,-2.539 0.978,-4.172c0.163,-0.588 0.297,-1.289 0.297,-1.558c0,-0.268 0.134,-0.969 0.298,-1.557c0.163,-0.588 0.457,-1.825 0.653,-2.749c0.196,-0.925 0.48,-2.154 0.633,-2.731c0.152,-0.578 0.481,-1.996 0.731,-3.152c0.25,-1.155 0.588,-2.56 0.75,-3.123c0.163,-0.562 0.296,-1.215 0.296,-1.452c0,-0.236 0.136,-0.911 0.302,-1.499c0.166,-0.588 0.406,-1.541 0.534,-2.119c0.129,-0.578 0.376,-1.665 0.55,-2.416c0.174,-0.751 0.364,-1.649 0.423,-1.996c0.185,-1.088 0.941,-4.367 1.253,-5.434c0.165,-0.562 0.3,-1.25 0.3,-1.529c0,-0.28 0.141,-0.848 0.315,-1.262c0.173,-0.415 0.315,-0.995 0.315,-1.288c0,-0.294 0.135,-1.015 0.301,-1.603c1.396,-4.953 1.883,-4.535 -5.289,-4.535c-3.677,0 -5.726,0.075 -5.726,0.21m-67.11,55.154c-0.3,0.227 -1.006,0.308 -2.671,0.308c-1.518,0 -2.491,0.1 -2.954,0.304c-0.379,0.168 -1.144,0.363 -1.7,0.435c-0.583,0.076 -1.059,0.258 -1.125,0.431c-0.073,0.19 -0.419,0.301 -0.94,0.301c-0.539,0 -0.866,0.109 -0.945,0.315c-0.08,0.206 -0.407,0.315 -0.946,0.315c-0.539,0 -0.866,0.109 -0.945,0.315c-0.067,0.174 -0.336,0.315 -0.598,0.315c-0.263,0 -0.595,0.142 -0.739,0.315c-0.144,0.174 -0.424,0.316 -0.624,0.316c-0.199,0 -0.58,0.189 -0.846,0.42c-0.267,0.231 -0.596,0.42 -0.733,0.42c-0.136,0 -0.523,0.281 -0.86,0.624c-0.337,0.344 -0.755,0.628 -0.928,0.632c-0.174,0.004 -0.825,0.477 -1.448,1.05c-0.623,0.574 -1.212,0.994 -1.31,0.934c-0.098,-0.061 -0.12,0.042 -0.049,0.228c0.088,0.229 -0.009,0.375 -0.303,0.452c-0.238,0.062 -0.484,0.245 -0.546,0.407c-0.062,0.162 -0.352,0.295 -0.644,0.295c-0.293,0 -0.532,0.108 -0.532,0.241c0,0.133 -0.312,0.544 -0.693,0.915c-0.381,0.37 -0.663,0.765 -0.625,0.877c0.037,0.112 -0.549,0.846 -1.303,1.63c-0.754,0.784 -1.371,1.557 -1.371,1.717c0,0.161 -0.142,0.292 -0.315,0.292c-0.196,0 -0.315,0.198 -0.315,0.525c0,0.327 -0.119,0.525 -0.315,0.525c-0.176,0 -0.315,0.187 -0.315,0.423c0,0.232 -0.189,0.584 -0.421,0.782c-0.231,0.198 -0.42,0.578 -0.42,0.845c0,0.266 -0.141,0.539 -0.315,0.606c-0.176,0.067 -0.315,0.379 -0.315,0.706c0,0.326 -0.139,0.639 -0.315,0.706c-0.195,0.075 -0.315,0.394 -0.315,0.837c0,0.394 -0.142,0.834 -0.315,0.978c-0.174,0.144 -0.315,0.53 -0.315,0.859c0,0.453 -0.079,0.568 -0.324,0.474c-0.178,-0.068 -0.309,-0.042 -0.29,0.059c0.178,0.978 -0.057,2.649 -0.384,2.735c-0.305,0.08 -0.379,0.389 -0.435,1.814c-0.037,0.946 -0.179,1.853 -0.315,2.018c-0.386,0.465 -0.401,6.689 -0.017,7.274c0.178,0.273 0.316,1.124 0.347,2.15c0.029,0.933 0.099,1.694 0.157,1.691c0.543,-0.032 0.63,0.13 0.63,1.173c0,0.748 0.107,1.218 0.315,1.391c0.174,0.144 0.316,0.575 0.316,0.957c0,0.382 0.141,0.836 0.315,1.009c0.173,0.174 0.315,0.418 0.315,0.544c0,0.126 0.283,0.761 0.63,1.411c0.347,0.649 0.63,1.305 0.63,1.458c0,0.153 0.196,0.46 0.435,0.682c0.239,0.223 0.417,0.534 0.395,0.691c-0.079,0.573 0.017,0.812 0.326,0.812c0.173,0 0.315,0.141 0.315,0.315c0,0.173 0.142,0.315 0.315,0.315c0.173,0 0.315,0.177 0.315,0.394c0,0.217 0.142,0.512 0.315,0.656c0.174,0.144 0.317,0.368 0.319,0.499c0.002,0.13 0.238,0.459 0.524,0.73c0.287,0.272 0.46,0.594 0.385,0.716c-0.076,0.121 -0.042,0.162 0.075,0.09c0.116,-0.072 0.318,0.103 0.448,0.388c0.13,0.285 0.338,0.518 0.463,0.518c0.125,0 0.169,0.095 0.097,0.21c-0.071,0.116 -0.024,0.211 0.105,0.211c0.129,0 0.169,0.106 0.088,0.237c-0.085,0.139 -0.036,0.2 0.121,0.148c0.374,-0.124 1.958,1.439 1.769,1.745c-0.088,0.142 -0.061,0.189 0.063,0.113c0.118,-0.073 0.383,0.054 0.59,0.283c0.206,0.228 0.597,0.415 0.868,0.415c0.271,0 0.493,0.089 0.493,0.199c0,0.389 1,1.271 1.442,1.271c0.247,0 0.449,0.088 0.449,0.196c0,0.108 0.189,0.256 0.42,0.33c0.231,0.073 0.42,0.268 0.42,0.434c0,0.165 0.13,0.301 0.289,0.301c0.16,0 0.407,0.142 0.551,0.315c0.144,0.173 0.429,0.315 0.634,0.315c0.204,0 0.426,0.142 0.493,0.315c0.066,0.174 0.363,0.315 0.659,0.315c0.296,0 0.589,0.133 0.651,0.295c0.063,0.162 0.438,0.355 0.834,0.429c0.397,0.075 0.721,0.218 0.721,0.32c0,0.101 0.276,0.244 0.613,0.318c0.337,0.074 0.664,0.271 0.728,0.437c0.083,0.216 0.471,0.302 1.358,0.302c0.847,0 1.324,0.1 1.503,0.315c0.143,0.174 0.536,0.315 0.873,0.315c0.337,0 0.849,0.156 1.138,0.345c0.395,0.259 0.643,0.293 0.991,0.136c0.301,-0.135 1.425,-0.142 3.195,-0.021c2.896,0.2 7.387,-0.027 9.244,-0.465c2.119,-0.5 4.151,-1.098 4.694,-1.382c0.307,-0.16 0.835,-0.291 1.173,-0.292c0.723,-0.001 2.051,-0.433 2.266,-0.735c0.082,-0.117 0.231,-0.212 0.331,-0.212c0.173,0 1.465,-0.588 2.145,-0.976c0.173,-0.099 0.528,-0.272 0.788,-0.384c0.26,-0.113 0.472,-0.302 0.472,-0.42c0,-0.119 0.142,-0.215 0.316,-0.215c0.173,0 0.315,-0.142 0.315,-0.316c0,-0.173 0.174,-0.315 0.388,-0.315c0.213,0 0.606,-0.189 0.872,-0.42c0.267,-0.231 0.565,-0.42 0.663,-0.42c0.098,0 0.178,-0.142 0.178,-0.315c0,-0.173 0.141,-0.315 0.315,-0.315c0.173,0 0.315,-0.142 0.315,-0.315c0,-0.174 0.142,-0.316 0.315,-0.316c0.173,0 0.315,-0.141 0.315,-0.315c0,-0.173 0.142,-0.315 0.315,-0.315c0.174,0 0.315,-0.142 0.315,-0.315c0,-0.173 0.119,-0.318 0.263,-0.322c0.355,-0.009 1.208,-0.738 1.208,-1.031c0,-0.13 0.142,-0.29 0.315,-0.357c0.173,-0.066 0.315,-0.252 0.315,-0.413c0,-0.161 0.142,-0.293 0.315,-0.293c0.174,0 0.315,-0.083 0.315,-0.184c0,-0.101 0.331,-0.544 0.736,-0.986c0.404,-0.442 0.735,-0.916 0.735,-1.054c0,-0.139 0.142,-0.306 0.315,-0.373c0.173,-0.066 0.315,-0.225 0.315,-0.352c0,-0.128 0.142,-0.374 0.315,-0.547c0.174,-0.174 0.316,-0.488 0.316,-0.698c0,-0.211 0.141,-0.437 0.315,-0.504c0.184,-0.07 0.315,-0.385 0.315,-0.757c0,-0.427 0.104,-0.637 0.315,-0.637c0.173,0 0.315,-0.149 0.315,-0.33c0,-0.182 0.142,-0.472 0.315,-0.646c0.173,-0.173 0.315,-0.497 0.315,-0.72c0,-0.633 0.032,-0.703 0.449,-0.995c0.225,-0.157 0.392,-0.527 0.392,-0.867c0,-0.326 0.141,-0.71 0.315,-0.854c0.182,-0.151 0.315,-0.609 0.315,-1.083c0,-0.536 0.109,-0.863 0.315,-0.942c0.234,-0.09 0.315,-0.461 0.315,-1.441c0,-0.981 0.081,-1.352 0.315,-1.442c0.27,-0.104 0.315,-0.992 0.315,-6.22c0,-5.281 -0.042,-6.099 -0.315,-6.099c-0.249,0 -0.315,-0.301 -0.315,-1.448c0,-1.093 -0.077,-1.478 -0.315,-1.569c-0.216,-0.083 -0.315,-0.421 -0.315,-1.08c0,-0.628 -0.102,-0.997 -0.295,-1.071c-0.162,-0.062 -0.355,-0.438 -0.429,-0.834c-0.081,-0.429 -0.259,-0.721 -0.441,-0.721c-0.168,0 -0.306,-0.189 -0.306,-0.42c0,-0.231 -0.14,-0.42 -0.311,-0.42c-0.171,0 -0.375,-0.26 -0.453,-0.578c-0.157,-0.638 -0.285,-0.862 -1.903,-3.333c-0.614,-0.938 -1.334,-1.931 -1.6,-2.206c-0.267,-0.275 -0.936,-1.095 -1.488,-1.821c-0.552,-0.726 -1.586,-1.8 -2.298,-2.386c-0.713,-0.586 -1.715,-1.41 -2.227,-1.831c-1.22,-1.002 -1.905,-1.748 -1.905,-2.076c0,-0.146 -0.236,-0.265 -0.525,-0.265c-0.289,0 -0.525,-0.078 -0.525,-0.173c0,-0.265 -1.669,-1.297 -2.097,-1.297c-0.209,0 -0.433,-0.142 -0.5,-0.316c-0.069,-0.18 -0.383,-0.315 -0.735,-0.315c-0.353,0 -0.666,-0.134 -0.736,-0.315c-0.066,-0.173 -0.367,-0.315 -0.667,-0.315c-0.301,0 -0.689,-0.142 -0.862,-0.315c-0.174,-0.173 -0.64,-0.315 -1.036,-0.315c-0.5,0 -0.72,-0.096 -0.72,-0.315c0,-0.174 -0.071,-0.321 -0.158,-0.327c-0.086,-0.007 -0.655,-0.045 -1.265,-0.084c-0.609,-0.04 -1.338,-0.224 -1.62,-0.408c-0.402,-0.263 -1.099,-0.338 -3.2,-0.343c-2.028,-0.005 -2.785,-0.083 -3.093,-0.316c-0.511,-0.386 -0.948,-0.382 -1.471,0.014m24.591,88.873c-0.107,0.279 -0.383,0.307 -1.778,0.186c-1.314,-0.115 -1.755,-0.078 -2.155,0.18c-0.276,0.178 -1.211,0.472 -2.078,0.652c-4.537,0.946 -9.68,3.396 -12.8,6.097c-0.943,0.817 -1.526,1.169 -1.935,1.169c-0.577,0 -3.542,2.644 -3.542,3.159c0,0.111 -0.146,0.202 -0.324,0.202c-0.179,0 -0.309,0.119 -0.291,0.263c0.074,0.572 -0.026,0.998 -0.236,0.998c-0.297,0 -1.25,1.047 -1.25,1.374c0,0.144 -0.142,0.316 -0.315,0.383c-0.173,0.066 -0.315,0.312 -0.315,0.547c0,0.239 -0.139,0.427 -0.315,0.427c-0.197,0 -0.316,0.199 -0.316,0.532c0,0.292 -0.141,0.586 -0.315,0.652c-0.179,0.069 -0.315,0.383 -0.315,0.729c0,0.4 -0.107,0.608 -0.315,0.608c-0.196,0 -0.315,0.198 -0.315,0.525c0,0.289 -0.088,0.525 -0.196,0.525c-0.232,0 -0.54,0.824 -0.461,1.231c0.031,0.157 -0.14,0.422 -0.379,0.59c-0.252,0.176 -0.437,0.542 -0.441,0.87c-0.004,0.311 -0.146,0.749 -0.315,0.973c-0.17,0.225 -0.309,0.757 -0.309,1.183c0,0.432 -0.139,0.89 -0.315,1.036c-0.231,0.191 -0.315,0.699 -0.315,1.89c0,1.192 -0.085,1.7 -0.315,1.891c-0.261,0.217 -0.315,0.98 -0.315,4.415c0,3.498 0.049,4.173 0.315,4.275c0.241,0.092 0.315,0.489 0.315,1.688c0,1.113 0.091,1.658 0.315,1.882c0.196,0.196 0.315,0.711 0.315,1.358c0,0.733 0.094,1.079 0.315,1.164c0.182,0.07 0.315,0.384 0.315,0.743c0,0.342 0.138,0.759 0.305,0.926c0.168,0.168 0.367,0.553 0.443,0.856c0.076,0.303 0.27,0.55 0.431,0.55c0.192,0 0.292,0.244 0.292,0.713c0,0.44 0.121,0.759 0.315,0.834c0.173,0.066 0.315,0.316 0.315,0.554c0,0.239 0.142,0.488 0.315,0.555c0.18,0.068 0.315,0.382 0.315,0.728c0,0.4 0.108,0.608 0.316,0.608c0.173,0 0.315,0.181 0.315,0.402c0,0.221 0.333,0.746 0.741,1.166c0.408,0.42 0.686,0.853 0.618,0.963c-0.068,0.11 0.071,0.2 0.309,0.2c0.244,0 0.433,0.137 0.433,0.315c0,0.174 0.141,0.315 0.315,0.315c0.173,0 0.315,0.152 0.315,0.338c0,0.185 0.283,0.695 0.63,1.133c0.347,0.438 0.63,0.9 0.63,1.028c0,0.128 0.145,0.232 0.322,0.232c0.177,0 0.376,0.142 0.443,0.316c0.066,0.173 0.255,0.315 0.42,0.315c0.164,0 0.354,0.141 0.42,0.315c0.067,0.173 0.238,0.315 0.381,0.315c0.143,0 0.753,0.473 1.355,1.05c0.603,0.578 1.195,1.051 1.316,1.051c0.121,0 0.173,0.122 0.116,0.272c-0.062,0.162 0.065,0.285 0.316,0.304c0.231,0.017 0.583,0.178 0.781,0.358c0.199,0.179 0.519,0.326 0.712,0.326c0.193,0 0.351,0.142 0.351,0.315c0,0.174 0.175,0.316 0.388,0.316c0.213,0 0.558,0.189 0.768,0.42c0.209,0.231 0.602,0.42 0.872,0.42c0.271,0 0.493,0.121 0.493,0.269c0,0.148 0.253,0.29 0.562,0.316c0.309,0.026 0.718,0.188 0.909,0.361c0.192,0.173 0.685,0.314 1.097,0.314c0.472,0 0.793,0.117 0.869,0.315c0.07,0.181 0.383,0.316 0.732,0.316c0.337,0 0.729,0.141 0.873,0.315c0.173,0.208 0.643,0.315 1.391,0.315c0.622,0 1.13,0.094 1.13,0.21c0,0.136 2.346,0.21 6.618,0.21l6.617,0l0,-1.025c0,-0.563 0.142,-1.364 0.316,-1.779c0.173,-0.415 0.315,-1.039 0.315,-1.387c0,-0.348 0.13,-0.989 0.288,-1.424c0.159,-0.436 0.399,-1.312 0.533,-1.948c0.866,-4.093 1.346,-6.199 2.131,-9.349c0.144,-0.577 0.298,-1.381 0.343,-1.785c0.044,-0.405 0.214,-1.208 0.377,-1.786c0.293,-1.041 0.58,-2.273 0.954,-4.097c0.106,-0.52 0.285,-1.276 0.397,-1.68c0.111,-0.405 0.406,-1.681 0.655,-2.837c0.249,-1.155 0.586,-2.56 0.748,-3.122c0.163,-0.563 0.296,-1.236 0.296,-1.497c0,-0.261 0.142,-0.877 0.316,-1.368c0.173,-0.491 0.315,-1.107 0.315,-1.368c0,-0.261 0.136,-0.934 0.303,-1.497c0.167,-0.562 0.459,-1.778 0.649,-2.702c0.609,-2.968 1.172,-5.435 1.479,-6.484c0.165,-0.563 0.3,-1.251 0.3,-1.53c0,-0.28 0.142,-0.848 0.315,-1.262c0.173,-0.415 0.315,-0.995 0.315,-1.288c0,-0.294 0.136,-1.015 0.303,-1.603c0.429,-1.512 0.915,-3.645 1.072,-4.697c0.074,-0.493 0.276,-1.038 0.449,-1.212c0.652,-0.652 0.315,-1.543 -0.59,-1.56c-0.188,-0.004 -0.46,-0.149 -0.604,-0.322c-0.144,-0.174 -0.429,-0.315 -0.633,-0.315c-0.205,0 -0.427,-0.142 -0.493,-0.315c-0.067,-0.174 -0.266,-0.316 -0.443,-0.316c-0.177,0 -0.322,-0.088 -0.322,-0.196c0,-0.107 -0.188,-0.255 -0.418,-0.328c-0.231,-0.074 -0.561,-0.275 -0.734,-0.448c-0.172,-0.172 -0.669,-0.37 -1.104,-0.438c-0.434,-0.068 -0.865,-0.251 -0.958,-0.407c-0.092,-0.156 -0.388,-0.283 -0.657,-0.283c-0.269,0 -0.607,-0.142 -0.75,-0.316c-0.16,-0.192 -0.62,-0.315 -1.182,-0.315c-0.664,0 -0.919,-0.084 -0.919,-0.305c0,-0.23 -0.34,-0.321 -1.368,-0.368c-0.752,-0.034 -1.343,-0.153 -1.313,-0.263c0.094,-0.347 -1.331,-0.512 -3.569,-0.415c-1.821,0.08 -2.154,0.045 -2.154,-0.223c0,-0.461 -2.004,-0.449 -2.182,0.013" id="path0"/>
   <path fill-rule="evenodd" fill="#dc5c04" d="m134.02538,15.376c0.046,0.137 0.196,0.286 0.333,0.332c0.154,0.051 0.201,-0.045 0.122,-0.249c-0.146,-0.382 -0.581,-0.462 -0.455,-0.083m-59.195,3.966c-0.076,0.123 -0.088,0.274 -0.026,0.336c0.15,0.15 0.56,-0.115 0.56,-0.363c0,-0.268 -0.363,-0.25 -0.534,0.027m63.349,21.099c-0.148,0.179 -0.223,0.373 -0.165,0.43c0.058,0.058 0.227,-0.041 0.375,-0.22c0.149,-0.179 0.223,-0.372 0.165,-0.43c-0.058,-0.058 -0.226,0.041 -0.375,0.22m-65.336,2.206c-0.231,0.231 -0.515,0.42 -0.63,0.42c-0.116,0 -0.21,0.157 -0.21,0.348c0,0.323 0.026,0.323 0.384,0c0.211,-0.191 0.484,-0.348 0.605,-0.348c0.122,0 0.271,-0.189 0.332,-0.42c0.06,-0.231 0.071,-0.42 0.024,-0.42c-0.047,0 -0.274,0.189 -0.505,0.42m64.758,0.007c-0.26,0.104 -0.472,0.331 -0.472,0.504c0,0.353 -0.351,1.217 -1.372,3.376c-0.383,0.808 -0.752,1.612 -0.82,1.785c-0.068,0.174 -0.311,0.599 -0.539,0.946c-0.229,0.346 -0.483,0.772 -0.564,0.945c-0.194,0.413 -1.554,2.318 -1.957,2.742c-0.174,0.182 -0.688,0.797 -1.144,1.368c-0.455,0.57 -1.424,1.618 -2.153,2.329c-0.729,0.71 -1.325,1.362 -1.325,1.447c0,0.086 -0.166,0.285 -0.368,0.442c-0.344,0.268 -0.342,0.277 0.034,0.145c0.278,-0.097 0.356,-0.065 0.251,0.105c-0.101,0.163 0.028,0.246 0.385,0.246c0.338,0 0.538,0.117 0.538,0.315c0,0.173 0.142,0.315 0.315,0.315c0.173,0 0.315,0.142 0.315,0.315c0,0.173 0.142,0.315 0.315,0.315c0.174,0 0.315,0.142 0.315,0.315c0,0.174 0.187,0.315 0.414,0.315c0.3,0 0.377,0.097 0.279,0.35c-0.081,0.211 -0.049,0.297 0.08,0.217c0.118,-0.073 0.417,0.101 0.665,0.386c0.248,0.285 0.64,0.518 0.872,0.518c0.235,0 0.422,0.14 0.422,0.315c0,0.173 0.141,0.315 0.315,0.315c0.173,0 0.315,0.142 0.315,0.315c0,0.174 0.142,0.315 0.315,0.315c0.173,0 0.315,0.142 0.315,0.316c0,0.173 0.186,0.315 0.414,0.315c0.299,0 0.376,0.096 0.279,0.349c-0.086,0.225 -0.052,0.299 0.097,0.207c0.128,-0.079 0.361,0.041 0.518,0.266c0.158,0.225 0.542,0.473 0.855,0.551c0.312,0.079 0.568,0.274 0.568,0.435c0,0.161 0.142,0.293 0.315,0.293c0.174,0 0.315,0.141 0.315,0.315c0,0.173 0.142,0.315 0.316,0.315c0.173,0 0.315,0.142 0.315,0.315c0,0.173 0.131,0.315 0.292,0.315c0.161,0 0.347,0.142 0.414,0.315c0.066,0.174 0.36,0.315 0.653,0.315c0.346,0 0.531,0.117 0.531,0.335c0,0.184 0.19,0.384 0.421,0.445c0.231,0.06 0.42,0.24 0.42,0.4c0,0.16 0.142,0.291 0.315,0.291c0.173,0 0.315,0.142 0.315,0.315c0,0.173 0.142,0.315 0.315,0.315c0.173,0 0.315,0.152 0.315,0.338c0,0.203 0.117,0.292 0.295,0.224c0.176,-0.067 0.337,0.053 0.402,0.299c0.059,0.226 0.186,0.398 0.283,0.381c0.514,-0.091 0.911,0.055 0.911,0.334c0,0.175 0.187,0.315 0.42,0.315c0.28,0 0.42,0.14 0.42,0.42c0,0.234 0.14,0.42 0.316,0.42c0.173,0 0.315,0.131 0.315,0.291c0,0.16 0.198,0.342 0.441,0.406c0.281,0.073 0.384,0.209 0.283,0.372c-0.099,0.16 -0.072,0.203 0.073,0.113c0.128,-0.079 0.324,0.029 0.436,0.239c0.468,0.874 2.338,0.408 2.338,-0.583c0,-0.216 0.1,-0.455 0.223,-0.531c0.123,-0.075 0.316,-0.341 0.429,-0.59c0.423,-0.926 1.368,-2.359 2.175,-3.296c0.608,-0.706 1.176,-1.405 2.603,-3.206c0.348,-0.438 1.133,-1.195 1.746,-1.68c0.613,-0.486 1.266,-1.025 1.452,-1.199c0.185,-0.173 0.92,-0.821 1.632,-1.441c1.079,-0.938 1.838,-2.071 1.07,-1.596c-0.123,0.076 -0.276,-0.06 -0.339,-0.303c-0.064,-0.243 -0.246,-0.441 -0.406,-0.441c-0.16,0 -0.291,-0.142 -0.291,-0.315c0,-0.174 -0.142,-0.315 -0.315,-0.315c-0.173,0 -0.315,-0.142 -0.315,-0.316c0,-0.173 -0.132,-0.315 -0.293,-0.315c-0.161,0 -0.347,-0.141 -0.413,-0.315c-0.067,-0.173 -0.361,-0.315 -0.653,-0.315c-0.333,0 -0.532,-0.118 -0.532,-0.315c0,-0.175 -0.187,-0.315 -0.42,-0.315c-0.28,0 -0.42,-0.14 -0.42,-0.42c0,-0.234 -0.14,-0.42 -0.315,-0.42c-0.174,0 -0.315,-0.131 -0.315,-0.291c0,-0.16 -0.199,-0.343 -0.442,-0.406c-0.242,-0.064 -0.391,-0.197 -0.329,-0.296c0.061,-0.099 -0.085,-0.196 -0.326,-0.214c-0.24,-0.018 -0.541,-0.146 -0.668,-0.284c-0.173,-0.189 -0.157,-0.21 0.064,-0.083c0.198,0.112 0.245,0.088 0.145,-0.075c-0.082,-0.133 -0.333,-0.242 -0.558,-0.242c-0.224,0 -0.407,-0.142 -0.407,-0.315c0,-0.175 -0.187,-0.315 -0.421,-0.315c-0.233,0 -0.42,-0.141 -0.42,-0.316c0,-0.173 -0.142,-0.315 -0.315,-0.315c-0.173,0 -0.317,-0.118 -0.319,-0.262c-0.005,-0.373 -0.935,-1.208 -1.345,-1.208c-0.19,0 -0.399,-0.142 -0.466,-0.315c-0.066,-0.174 -0.297,-0.316 -0.512,-0.316c-0.261,0 -0.351,-0.104 -0.27,-0.315c0.084,-0.218 -0.015,-0.315 -0.322,-0.315c-0.253,0 -0.442,-0.135 -0.442,-0.315c0,-0.173 -0.142,-0.315 -0.315,-0.315c-0.174,0 -0.316,-0.131 -0.316,-0.291c0,-0.16 -0.198,-0.342 -0.441,-0.406c-0.243,-0.063 -0.379,-0.216 -0.303,-0.339c0.077,-0.124 0.053,-0.225 -0.051,-0.225c-0.105,0 -0.409,-0.189 -0.675,-0.42c-0.267,-0.231 -0.612,-0.42 -0.768,-0.42c-0.329,0 -1.123,-0.743 -1.123,-1.05c0,-0.116 -0.142,-0.21 -0.315,-0.21c-0.173,0 -0.315,-0.142 -0.315,-0.316c0,-0.173 -0.186,-0.315 -0.414,-0.315c-0.299,0 -0.376,-0.096 -0.279,-0.349c0.081,-0.212 0.049,-0.297 -0.08,-0.218c-0.118,0.073 -0.424,-0.108 -0.68,-0.402c-0.279,-0.322 -0.593,-0.487 -0.786,-0.413c-0.208,0.08 -0.36,-0.025 -0.431,-0.297c-0.061,-0.232 -0.241,-0.422 -0.401,-0.422c-0.16,0 -0.291,-0.141 -0.291,-0.315c0,-0.173 -0.141,-0.315 -0.315,-0.315c-0.173,0 -0.315,-0.142 -0.315,-0.315c0,-0.352 -0.295,-0.381 -0.998,-0.098m-67.867,2.556c-0.336,0.336 -0.319,0.588 0.038,0.588c0.16,0 0.34,-0.189 0.401,-0.42c0.123,-0.473 -0.063,-0.544 -0.439,-0.168m-1.093,0.929c0,0.279 0.057,0.294 0.315,0.079c0.174,-0.143 0.315,-0.297 0.315,-0.34c0,-0.044 -0.141,-0.08 -0.315,-0.08c-0.173,0 -0.315,0.154 -0.315,0.341m-3.151,2.6c-0.231,0.232 -0.515,0.421 -0.63,0.421c-0.116,0 -0.21,0.156 -0.21,0.347c0,0.324 0.026,0.324 0.384,0c0.211,-0.191 0.531,-0.347 0.711,-0.347c0.179,0 0.376,-0.189 0.436,-0.421c0.061,-0.231 0.024,-0.42 -0.08,-0.42c-0.105,0 -0.38,0.189 -0.611,0.42m-4.466,3.598c-0.201,0.113 -0.366,0.342 -0.366,0.51c0,0.223 0.116,0.188 0.438,-0.133c0.5,-0.5 0.466,-0.678 -0.072,-0.377m-26.416,3.02c0.143,0.173 0.356,0.315 0.471,0.315c0.117,0 0.095,-0.139 -0.051,-0.315c-0.144,-0.173 -0.356,-0.315 -0.472,-0.315c-0.117,0 -0.094,0.139 0.052,0.315m22.479,0.335c-0.289,0.34 -0.573,0.679 -0.631,0.755c-0.057,0.075 0.25,-0.139 0.683,-0.476c0.433,-0.338 0.788,-0.685 0.788,-0.771c0,-0.306 -0.321,-0.118 -0.84,0.492m-2.796,2.215c-0.168,0.168 0.022,0.496 0.287,0.496c0.109,0 0.198,-0.141 0.198,-0.315c0,-0.325 -0.248,-0.417 -0.485,-0.181m-1.139,1.038c-0.82,0.936 -0.785,1.027 0.116,0.303c0.952,-0.764 1.012,-0.847 0.615,-0.841c-0.145,0.002 -0.473,0.244 -0.731,0.538m-38.082,1.559c-0.174,0.112 -0.221,0.207 -0.105,0.21c0.115,0.004 0.068,0.098 -0.105,0.21c-0.198,0.128 -0.221,0.205 -0.06,0.207c0.14,0.002 0.356,-0.186 0.48,-0.417c0.254,-0.475 0.233,-0.496 -0.21,-0.21m65.388,0.989c-0.549,0.106 -1.094,0.902 -0.617,0.902c0.159,0 0.564,-0.236 0.9,-0.525c0.336,-0.289 0.516,-0.512 0.4,-0.497c-0.115,0.016 -0.423,0.07 -0.683,0.12m-69.163,2.105c-0.275,0.31 -0.268,0.332 0.07,0.202c0.208,-0.079 0.417,-0.145 0.466,-0.145c0.048,0 0.088,-0.094 0.088,-0.21c0,-0.309 -0.273,-0.242 -0.624,0.153m65.329,1.003c0,0.173 -0.118,0.317 -0.262,0.319c-0.256,0.003 -0.975,0.676 -1.288,1.204c-0.085,0.144 -0.055,0.263 0.067,0.263c0.123,0 0.223,-0.132 0.223,-0.293c0,-0.161 0.254,-0.356 0.565,-0.434c0.896,-0.225 1.741,-1.374 1.011,-1.374c-0.174,0 -0.316,0.142 -0.316,0.315m24.16,1.341c0,0.102 0.195,0.236 0.432,0.298c0.355,0.093 0.388,0.06 0.185,-0.185c-0.278,-0.334 -0.617,-0.396 -0.617,-0.113m-28.151,2.02c0,0.174 -0.186,0.315 -0.414,0.315c-0.281,0 -0.375,0.101 -0.292,0.315c0.075,0.198 -0.002,0.316 -0.21,0.316c-0.181,0 -0.431,0.189 -0.555,0.42c-0.152,0.285 -0.155,0.42 -0.007,0.42c0.119,0 0.217,-0.142 0.217,-0.315c0,-0.174 0.142,-0.315 0.315,-0.315c0.174,0 0.505,-0.189 0.736,-0.421c0.231,-0.231 0.514,-0.42 0.63,-0.42c0.116,0 0.21,-0.141 0.21,-0.315c0,-0.173 -0.142,-0.315 -0.315,-0.315c-0.173,0 -0.315,0.142 -0.315,0.315m-3.414,2.899c-0.613,0.242 -0.793,0.778 -0.263,0.778c0.174,0 0.315,-0.108 0.315,-0.24c0,-0.131 0.166,-0.365 0.368,-0.518c0.43,-0.326 0.364,-0.329 -0.42,-0.02m-1.322,1.002c-0.076,0.123 -0.088,0.274 -0.026,0.336c0.15,0.15 0.56,-0.115 0.56,-0.363c0,-0.268 -0.363,-0.25 -0.534,0.027m-2.615,2.363c-0.526,0.25 -1.263,0.888 -1.263,1.094c0,0.06 0.221,-0.034 0.49,-0.211c0.269,-0.176 0.553,-0.257 0.63,-0.18c0.078,0.078 0.141,0.018 0.141,-0.133c0,-0.151 0.165,-0.4 0.368,-0.554c0.448,-0.34 0.328,-0.345 -0.366,-0.016m80.04,23.412c0,0.115 0.142,0.327 0.315,0.471c0.176,0.146 0.315,0.169 0.315,0.052c0,-0.116 -0.142,-0.328 -0.315,-0.472c-0.176,-0.146 -0.315,-0.169 -0.315,-0.051m63.332,3.636c-0.077,0.124 -0.088,0.275 -0.027,0.337c0.151,0.15 0.56,-0.115 0.56,-0.363c0,-0.268 -0.362,-0.25 -0.533,0.026m-61.2,1.867c0.046,0.138 0.153,0.245 0.237,0.236c0.251,-0.026 0.202,-0.314 -0.069,-0.404c-0.138,-0.047 -0.214,0.029 -0.168,0.168m0.599,1.441c0,0.113 0.15,0.262 0.333,0.333c0.204,0.078 0.3,0.031 0.249,-0.122c-0.105,-0.314 -0.582,-0.487 -0.582,-0.211m-86.038,1.314c-0.076,0.124 -0.088,0.275 -0.026,0.336c0.15,0.151 0.56,-0.114 0.56,-0.362c0,-0.269 -0.363,-0.251 -0.534,0.026m88.691,2.606c0.067,0.176 0.199,0.272 0.292,0.214c0.094,-0.058 0.218,0.014 0.277,0.159c0.079,0.197 0.11,0.199 0.123,0.008c0.009,-0.14 -0.171,-0.355 -0.399,-0.477c-0.339,-0.181 -0.393,-0.163 -0.293,0.096m41.999,9.971c-0.144,0.232 0.188,0.483 0.382,0.289c0.199,-0.2 0.162,-0.485 -0.064,-0.485c-0.108,0 -0.252,0.088 -0.318,0.196m-28.686,1.238c0,0.359 -0.133,0.673 -0.315,0.743c-0.232,0.089 -0.315,0.456 -0.315,1.388c0,0.986 -0.07,1.267 -0.315,1.267c-0.231,0 -0.315,0.24 -0.315,0.895c0,0.667 -0.107,0.962 -0.42,1.157c-0.33,0.206 -0.42,0.49 -0.42,1.318c0,0.744 -0.093,1.091 -0.316,1.176c-0.22,0.085 -0.315,0.429 -0.315,1.149c0,0.774 -0.078,1.028 -0.315,1.028c-0.232,0 -0.315,0.243 -0.315,0.923c0,0.563 -0.106,0.964 -0.273,1.027c-0.152,0.059 -0.296,0.507 -0.326,1.019c-0.032,0.531 -0.181,0.985 -0.358,1.084c-0.204,0.114 -0.303,0.528 -0.303,1.264c0,0.867 -0.088,1.149 -0.421,1.357c-0.329,0.206 -0.42,0.49 -0.42,1.317c0,0.745 -0.093,1.091 -0.315,1.177c-0.221,0.084 -0.315,0.429 -0.315,1.149c0,0.773 -0.078,1.027 -0.315,1.027c-0.232,0 -0.315,0.243 -0.315,0.923c0,0.587 -0.105,0.963 -0.288,1.034c-0.158,0.06 -0.333,0.352 -0.39,0.648c-0.118,0.618 -0.022,0.664 1.833,0.876c0.693,0.079 1.355,0.202 1.471,0.275c0.115,0.072 0.73,0.238 1.365,0.369c0.636,0.131 1.487,0.357 1.891,0.503c1.99,0.715 2.471,0.897 3.151,1.192c0.405,0.176 0.877,0.399 1.051,0.496c0.173,0.097 0.74,0.384 1.26,0.638c1.279,0.625 4.412,2.717 4.412,2.946c0,0.101 0.132,0.185 0.293,0.185c0.161,0 0.347,0.141 0.413,0.315c0.174,0.451 0.765,0.389 0.765,-0.081c0,-0.219 0.187,-0.445 0.42,-0.505c0.341,-0.09 0.42,-0.287 0.42,-1.053c0,-0.644 0.1,-0.981 0.315,-1.063c0.228,-0.088 0.315,-0.444 0.315,-1.283c0,-0.893 0.073,-1.162 0.315,-1.162c0.238,0 0.315,-0.257 0.315,-1.051c0,-0.793 0.077,-1.05 0.316,-1.05c0.244,0 0.318,-0.294 0.331,-1.313c0.009,-0.722 0.065,-1.195 0.123,-1.049c0.229,0.567 0.491,-0.03 0.491,-1.117c0,-0.876 0.074,-1.143 0.315,-1.143c0.233,0 0.315,-0.245 0.315,-0.945c0,-0.666 0.125,-1.07 0.42,-1.366c0.282,-0.281 0.42,-0.7 0.42,-1.267c0,-0.559 0.108,-0.888 0.316,-0.968c0.22,-0.085 0.315,-0.429 0.315,-1.149c0,-0.774 0.078,-1.028 0.315,-1.028c0.232,0 0.315,-0.242 0.315,-0.923c0,-0.629 0.101,-0.961 0.317,-1.044c0.174,-0.067 0.305,-0.195 0.29,-0.285c-0.146,-0.895 0.064,-2.37 0.338,-2.37c0.231,0 0.316,-0.239 0.316,-0.894c0,-0.668 0.106,-0.962 0.42,-1.158c0.326,-0.204 0.42,-0.49 0.42,-1.285c0,-0.653 0.114,-1.118 0.315,-1.285c0.195,-0.162 0.315,-0.623 0.315,-1.213l0,-0.952l-2.866,0.129c-3.352,0.152 -8.155,-0.161 -9.203,-0.599c-0.403,-0.168 -1.016,-0.306 -1.362,-0.306c-0.347,0 -0.941,-0.129 -1.32,-0.287c-1.055,-0.44 -2.075,-0.78 -3.001,-1c-0.462,-0.109 -1.006,-0.249 -1.208,-0.31c-0.292,-0.089 -0.368,0.016 -0.368,0.51m-117.437,0.409c0,0.233 0.142,0.478 0.316,0.544c0.183,0.071 0.315,0.003 0.315,-0.162c0,-0.155 -0.142,-0.4 -0.315,-0.544c-0.263,-0.218 -0.316,-0.191 -0.316,0.162m-19.303,2.32c-0.033,0.38 0.366,1.089 0.613,1.089c0.112,0 0.203,-0.141 0.203,-0.315c0,-0.173 -0.135,-0.315 -0.3,-0.315c-0.165,0 -0.343,-0.165 -0.396,-0.367c-0.052,-0.203 -0.107,-0.244 -0.12,-0.092m19.934,0.332c0,0.161 0.135,0.344 0.301,0.408c0.165,0.063 0.342,0.428 0.392,0.81c0.068,0.517 0.088,0.453 0.08,-0.251c-0.01,-0.863 -0.199,-1.248 -0.616,-1.257c-0.086,-0.002 -0.157,0.129 -0.157,0.29m1,2.372c-0.051,0.094 0.036,0.407 0.194,0.696l0.286,0.526l-0.067,-0.57c-0.073,-0.619 -0.266,-0.925 -0.413,-0.652m0.478,2.114c0.004,0.087 0.142,0.394 0.307,0.683c0.313,0.547 0.45,0.176 0.188,-0.508c-0.128,-0.334 -0.509,-0.468 -0.495,-0.175m-19.966,0.683c0,0.234 0.14,0.42 0.315,0.42c0.175,0 0.315,-0.186 0.315,-0.42c0,-0.233 -0.14,-0.42 -0.315,-0.42c-0.175,0 -0.315,0.187 -0.315,0.42m21.219,4.267c0,0.171 0.132,0.361 0.294,0.423c0.187,0.072 0.276,-0.012 0.244,-0.229c-0.064,-0.436 -0.538,-0.607 -0.538,-0.194m-19.899,0.37c0.017,0.225 0.123,0.38 0.235,0.342c0.345,-0.115 0.372,-0.508 0.044,-0.634c-0.213,-0.082 -0.301,0.009 -0.279,0.292m0.591,1.981c-0.019,0.597 0.302,1.031 0.619,0.835c0.207,-0.128 0.197,-0.214 -0.048,-0.395c-0.172,-0.126 -0.368,-0.372 -0.435,-0.545c-0.089,-0.229 -0.126,-0.201 -0.136,0.105m20.608,2.361c0.038,0.201 0.242,0.398 0.453,0.439c0.327,0.063 0.349,0.01 0.148,-0.365c-0.285,-0.532 -0.699,-0.583 -0.601,-0.074m-19.998,0.111c0,0.314 0.57,0.915 0.723,0.762c0.045,-0.046 -0.1,-0.306 -0.321,-0.579c-0.274,-0.338 -0.402,-0.396 -0.402,-0.183m20.637,1.204c0,0.405 0.043,0.57 0.096,0.368c0.053,-0.202 0.053,-0.533 0,-0.735c-0.053,-0.203 -0.096,-0.037 -0.096,0.367m0.194,1.167c0.04,0.206 0.2,0.416 0.355,0.468c0.181,0.06 0.257,-0.041 0.21,-0.28c-0.04,-0.206 -0.199,-0.417 -0.355,-0.469c-0.181,-0.06 -0.256,0.041 -0.21,0.281m-19.99,0.386c0,0.161 0.141,0.348 0.315,0.414c0.214,0.082 0.315,-0.011 0.315,-0.293c0,-0.227 -0.142,-0.413 -0.315,-0.413c-0.174,0 -0.315,0.131 -0.315,0.292m1.89,6.956c0,0.173 0.154,0.315 0.341,0.315c0.279,0 0.294,-0.057 0.08,-0.315c-0.144,-0.174 -0.298,-0.315 -0.341,-0.315c-0.044,0 -0.08,0.141 -0.08,0.315m0.631,2.353c0,0.241 0.141,0.492 0.315,0.559c0.395,0.151 0.392,-0.061 -0.007,-0.589c-0.303,-0.401 -0.308,-0.4 -0.308,0.03m0.83,2.775c0.284,0.531 0.699,0.582 0.601,0.074c-0.039,-0.201 -0.243,-0.399 -0.453,-0.439c-0.328,-0.063 -0.349,-0.011 -0.148,0.365m46.455,2.06c-0.009,0.14 0.17,0.355 0.399,0.477c0.338,0.181 0.393,0.164 0.293,-0.096c-0.067,-0.176 -0.199,-0.272 -0.292,-0.214c-0.094,0.058 -0.218,-0.013 -0.277,-0.159c-0.08,-0.197 -0.11,-0.199 -0.123,-0.008m99.479,5.489c-0.073,0.118 -0.03,0.277 0.095,0.354c0.323,0.2 0.531,-0.073 0.262,-0.343c-0.151,-0.151 -0.269,-0.155 -0.357,-0.011m-91.481,8.636c0.046,0.138 0.153,0.245 0.237,0.236c0.251,-0.026 0.202,-0.314 -0.069,-0.404c-0.138,-0.047 -0.214,0.029 -0.168,0.168m0.674,2.639c-0.122,0.317 -0.079,0.634 0.323,2.413c0.284,1.257 0.282,7.446 -0.003,8.509c-0.124,0.462 -0.292,1.36 -0.374,1.995c-0.081,0.636 -0.257,1.487 -0.39,1.891c-0.519,1.575 -0.892,2.93 -0.892,3.243c0,0.295 1.672,0.329 16.394,0.329c18.044,0 16.977,0.084 16.294,-1.285c-0.184,-0.369 -0.335,-0.842 -0.335,-1.051c0,-0.21 -0.145,-0.809 -0.323,-1.333c-0.778,-2.291 -1.231,-7.326 -0.928,-10.302c0.13,-1.271 0.283,-2.854 0.342,-3.519l0.106,-1.208l-15.046,0c-13.235,0 -15.061,0.038 -15.168,0.318m94.769,15.242c-0.076,0.124 -0.088,0.275 -0.026,0.337c0.15,0.15 0.56,-0.115 0.56,-0.363c0,-0.269 -0.363,-0.251 -0.534,0.026m-156.569,7.983c0.05,0.151 0.216,0.317 0.367,0.367c0.158,0.053 0.237,-0.026 0.184,-0.183c-0.05,-0.152 -0.216,-0.318 -0.368,-0.368c-0.157,-0.053 -0.236,0.026 -0.183,0.184m3.353,4.598c0.046,0.139 0.153,0.245 0.236,0.236c0.252,-0.026 0.203,-0.314 -0.068,-0.404c-0.138,-0.046 -0.214,0.029 -0.168,0.168m45.907,5.403c-0.255,0.255 -0.145,0.479 0.175,0.356c0.173,-0.067 0.315,-0.206 0.315,-0.309c0,-0.22 -0.289,-0.248 -0.49,-0.047" id="path1"/>
   <path fill-rule="evenodd" fill="#dc6c43" d="m73.26338,42.752c0,0.173 -0.088,0.315 -0.195,0.315c-0.362,0 -1.678,0.943 -1.687,1.208c-0.005,0.145 -0.151,0.263 -0.324,0.263c-0.173,0 -0.315,0.147 -0.315,0.327c0,0.18 -0.101,0.266 -0.224,0.189c-0.124,-0.076 -0.276,0.06 -0.34,0.303c-0.063,0.243 -0.27,0.441 -0.458,0.441c-0.189,0.001 -0.695,0.308 -1.124,0.683c-0.43,0.376 -1.016,0.872 -1.304,1.103c-0.287,0.231 -0.526,0.544 -0.532,0.695c-0.005,0.151 -0.11,0.213 -0.234,0.137c-0.123,-0.077 -0.276,0.059 -0.339,0.302c-0.064,0.243 -0.257,0.442 -0.429,0.442c-0.355,0 -1.774,1.045 -2.62,1.929c-0.311,0.325 -0.618,0.592 -0.682,0.592c-0.065,0 -0.301,0.165 -0.524,0.367c-0.224,0.203 -0.763,0.652 -1.197,0.998c-0.434,0.347 -1.105,0.938 -1.49,1.313c-0.386,0.376 -0.76,0.683 -0.831,0.683c-0.189,0 -1.973,1.451 -2.629,2.138c-0.311,0.326 -0.665,0.593 -0.787,0.593c-0.122,0 -0.222,0.142 -0.222,0.315c0,0.174 -0.109,0.315 -0.241,0.315c-0.423,0 -2.911,2.105 -2.911,2.462c0,0.238 0.814,1.084 1.905,1.98c0.512,0.421 1.514,1.245 2.227,1.831c0.712,0.586 1.746,1.66 2.298,2.386c0.552,0.726 1.221,1.546 1.488,1.821c0.266,0.275 0.986,1.268 1.6,2.206c1.618,2.471 1.746,2.695 1.903,3.333c0.156,0.633 1.206,0.845 1.542,0.311c0.092,-0.147 0.428,-0.381 0.745,-0.521c0.318,-0.139 0.578,-0.35 0.578,-0.468c0,-0.118 0.142,-0.215 0.315,-0.215c0.174,0 0.315,-0.141 0.315,-0.315c0,-0.173 0.142,-0.315 0.315,-0.315c0.174,0 0.316,-0.142 0.316,-0.315c0,-0.173 0.131,-0.315 0.292,-0.315c0.161,0 0.347,-0.142 0.414,-0.315c0.066,-0.174 0.266,-0.315 0.442,-0.315c0.177,0 0.322,-0.132 0.322,-0.293c0,-0.16 0.213,-0.348 0.473,-0.416c0.531,-0.139 2.812,-2.21 2.731,-2.479c-0.029,-0.096 0.137,-0.174 0.368,-0.174c0.233,0 0.42,-0.14 0.42,-0.315c0,-0.173 0.175,-0.315 0.39,-0.315c0.215,0 1.014,-0.614 1.776,-1.365c0.763,-0.752 1.485,-1.366 1.606,-1.366c0.121,0 0.219,-0.142 0.219,-0.315c0,-0.173 0.175,-0.315 0.388,-0.315c0.214,0 1.021,-0.615 1.795,-1.366c0.773,-0.751 1.505,-1.365 1.626,-1.365c0.198,0 0.672,-0.382 1.891,-1.523c0.216,-0.203 0.487,-0.368 0.603,-0.368c0.115,0 0.21,-0.119 0.21,-0.264c0,-0.145 0.274,-0.385 0.609,-0.533c0.86,-0.381 0.662,-0.875 -1.047,-2.597c-3.276,-3.302 -7.77,-10.064 -7.753,-11.666c0.005,-0.532 -0.984,-2.167 -1.312,-2.167c-0.204,0 -0.371,0.142 -0.371,0.315m-28.604,76.864c-0.54,0.287 -2.548,0.88 -4.694,1.387c-1.859,0.439 -6.347,0.665 -9.244,0.465c-1.502,-0.104 -2.849,-0.145 -2.994,-0.092c-0.372,0.138 -0.33,1.3 0.053,1.447c0.218,0.084 0.315,0.425 0.315,1.109c0,0.543 0.139,1.171 0.308,1.395c0.17,0.225 0.312,0.81 0.316,1.301c0.004,0.651 0.092,0.893 0.321,0.893c0.241,0 0.315,0.266 0.315,1.13c0,0.748 0.107,1.218 0.316,1.391c0.191,0.159 0.315,0.619 0.315,1.171c0,0.549 0.114,0.975 0.288,1.077c0.16,0.093 0.342,0.674 0.408,1.303c0.066,0.625 0.236,1.208 0.378,1.295c0.142,0.088 0.286,0.606 0.319,1.151c0.034,0.545 0.207,1.151 0.385,1.347c0.182,0.201 0.323,0.74 0.323,1.233c0,0.639 0.085,0.877 0.315,0.877c0.241,0 0.315,0.267 0.315,1.14c0,0.734 0.112,1.253 0.315,1.456c0.189,0.189 0.315,0.703 0.315,1.282c0,0.666 0.098,1.005 0.315,1.088c0.212,0.081 0.315,0.414 0.315,1.018c0,0.541 0.125,1.001 0.315,1.159c0.188,0.155 0.316,0.614 0.316,1.134c0,0.48 0.144,1.079 0.319,1.33c0.176,0.251 0.376,0.863 0.444,1.359c0.069,0.497 0.256,0.979 0.416,1.072c0.16,0.092 0.291,0.352 0.291,0.577c0,0.715 0.708,0.461 2.116,-0.759c3.182,-2.755 8.507,-5.254 13.204,-6.196c1.816,-0.364 2.127,-0.696 1.882,-2.005c-0.104,-0.556 -0.282,-1.106 -0.397,-1.22c-0.114,-0.115 -0.208,-0.536 -0.208,-0.938c0,-0.401 -0.141,-0.885 -0.314,-1.076c-0.173,-0.191 -0.376,-0.813 -0.452,-1.382c-0.076,-0.569 -0.265,-1.111 -0.421,-1.203c-0.175,-0.104 -0.284,-0.552 -0.284,-1.168c0,-0.554 -0.137,-1.182 -0.308,-1.407c-0.17,-0.225 -0.312,-0.766 -0.315,-1.203c-0.005,-0.507 -0.121,-0.838 -0.322,-0.915c-0.22,-0.084 -0.315,-0.427 -0.315,-1.134c0,-0.62 -0.122,-1.135 -0.315,-1.328c-0.174,-0.173 -0.316,-0.61 -0.316,-0.971c0,-0.36 -0.146,-0.939 -0.326,-1.286c-0.179,-0.347 -0.37,-0.972 -0.423,-1.39c-0.053,-0.418 -0.19,-0.871 -0.304,-1.008c-0.113,-0.137 -0.268,-0.697 -0.343,-1.244c-0.075,-0.548 -0.264,-1.045 -0.42,-1.105c-0.19,-0.072 -0.284,-0.482 -0.284,-1.231c0,-0.744 -0.1,-1.179 -0.295,-1.291c-0.162,-0.092 -0.328,-0.404 -0.368,-0.693c-0.088,-0.637 -1.018,-0.805 -1.891,-0.342" id="path2"/>
   <path fill-rule="evenodd" fill="#fc8c04" d="m111.07838,0.168c0,0.093 0.099,0.267 0.22,0.388c0.216,0.216 0.039,1.148 -0.759,3.979c-0.166,0.588 -0.301,1.309 -0.301,1.603c0,0.293 -0.142,0.873 -0.315,1.288c-0.174,0.414 -0.315,0.982 -0.315,1.262c0,0.279 -0.135,0.967 -0.3,1.529c-0.312,1.067 -1.068,4.346 -1.253,5.434c-0.059,0.347 -0.249,1.245 -0.423,1.996c-0.174,0.751 -0.421,1.838 -0.55,2.416c-0.128,0.578 -0.368,1.531 -0.534,2.119c-0.166,0.588 -0.302,1.263 -0.302,1.499c0,0.237 -0.133,0.89 -0.296,1.452c-0.162,0.563 -0.5,1.968 -0.75,3.123c-0.25,1.156 -0.579,2.574 -0.731,3.152c-0.153,0.577 -0.437,1.806 -0.633,2.731c-0.196,0.924 -0.49,2.161 -0.653,2.749c-0.164,0.588 -0.298,1.289 -0.298,1.557c0,0.269 -0.134,0.97 -0.297,1.558c-0.453,1.633 -0.789,3.066 -0.978,4.172c-0.095,0.551 -0.267,1.307 -0.384,1.68c-0.116,0.373 -0.413,1.624 -0.658,2.779c-0.245,1.156 -0.581,2.527 -0.746,3.047c-0.165,0.52 -0.3,1.203 -0.299,1.519c0,0.315 -0.129,0.929 -0.288,1.365c-0.159,0.436 -0.397,1.312 -0.53,1.948c-0.133,0.635 -0.383,1.817 -0.557,2.626c-0.173,0.808 -0.406,1.952 -0.518,2.541c-0.111,0.588 -0.346,1.475 -0.52,1.969c-0.418,1.183 -0.401,1.477 0.085,1.477c0.222,0 0.436,0.1 0.477,0.221c0.04,0.122 0.87,0.276 1.844,0.342c1.02,0.069 1.887,0.236 2.044,0.393c0.416,0.416 7.66,0.427 8.309,0.013c0.261,-0.166 1.222,-0.353 2.136,-0.415c0.913,-0.062 1.721,-0.209 1.794,-0.327c0.073,-0.118 0.601,-0.263 1.174,-0.322c0.581,-0.06 1.145,-0.249 1.275,-0.426c0.129,-0.176 0.428,-0.319 0.666,-0.319c0.62,0 1.114,-0.223 0.978,-0.442c-0.064,-0.104 0.21,-0.189 0.609,-0.189c0.451,0 0.771,-0.119 0.846,-0.315c0.076,-0.196 0.396,-0.315 0.853,-0.315c0.402,0 0.807,-0.118 0.899,-0.262c0.093,-0.145 0.617,-0.497 1.166,-0.784c0.549,-0.286 0.998,-0.641 0.998,-0.788c0,-0.146 0.239,-0.267 0.532,-0.267c0.292,0 0.586,-0.141 0.653,-0.315c0.066,-0.173 0.242,-0.315 0.391,-0.315c0.148,0 0.324,-0.142 0.391,-0.315c0.066,-0.173 0.265,-0.315 0.442,-0.315c0.177,0 0.322,-0.121 0.322,-0.269c0,-0.147 0.189,-0.43 0.42,-0.628c0.231,-0.198 0.42,-0.503 0.42,-0.678c0,-0.176 0.639,-0.958 1.419,-1.738c1.949,-1.951 3.839,-4.25 5.22,-6.351c0.864,-1.315 2.815,-5.376 2.815,-5.859c0,-0.496 0.909,-1.704 1.282,-1.704c0.344,0 0.399,-0.16 0.399,-1.155c0,-0.813 0.078,-1.14 0.263,-1.103c0.189,0.038 0.279,-0.441 0.324,-1.727c0.04,-1.157 0.165,-1.894 0.357,-2.106c0.365,-0.403 0.411,-6.641 0.051,-6.863c-0.137,-0.085 -0.156,-0.033 -0.05,0.139c0.104,0.168 0.088,0.224 -0.043,0.143c-0.117,-0.072 -0.231,-0.914 -0.254,-1.87c-0.024,-1.014 -0.168,-1.994 -0.345,-2.35c-0.166,-0.335 -0.303,-1.013 -0.303,-1.505c0,-0.493 -0.101,-0.929 -0.224,-0.97c-0.123,-0.041 -0.278,-0.483 -0.345,-0.981c-0.067,-0.499 -0.25,-0.956 -0.407,-1.016c-0.156,-0.06 -0.285,-0.336 -0.285,-0.612c0,-0.277 -0.189,-0.692 -0.42,-0.923c-0.231,-0.231 -0.42,-0.647 -0.42,-0.923c0,-0.277 -0.142,-0.557 -0.315,-0.624c-0.173,-0.066 -0.315,-0.348 -0.315,-0.627c0,-0.278 -0.142,-0.624 -0.315,-0.767c-0.174,-0.144 -0.315,-0.392 -0.315,-0.551c0,-0.159 -0.13,-0.29 -0.289,-0.29c-0.159,0 -0.346,-0.283 -0.415,-0.63c-0.077,-0.382 -0.257,-0.63 -0.459,-0.63c-0.183,0 -0.272,-0.098 -0.198,-0.218c0.074,-0.12 -0.166,-0.522 -0.533,-0.893c-0.368,-0.371 -0.753,-0.893 -0.858,-1.16c-0.104,-0.267 -0.277,-0.431 -0.384,-0.365c-0.108,0.067 -0.256,-0.07 -0.33,-0.302c-0.074,-0.233 -0.222,-0.424 -0.33,-0.424c-0.108,0 -0.196,-0.105 -0.196,-0.234c0,-0.306 -1.56,-1.866 -1.866,-1.866c-0.129,0 -0.235,-0.142 -0.235,-0.316c0,-0.173 -0.142,-0.315 -0.315,-0.315c-0.173,0 -0.315,-0.141 -0.315,-0.315c0,-0.173 -0.118,-0.319 -0.263,-0.324c-0.144,-0.005 -0.494,-0.288 -0.778,-0.63c-0.289,-0.349 -0.721,-0.621 -0.983,-0.621c-0.284,0 -0.521,-0.166 -0.602,-0.421c-0.073,-0.231 -0.269,-0.42 -0.434,-0.42c-0.166,0 -0.301,-0.142 -0.301,-0.315c0,-0.173 -0.131,-0.315 -0.29,-0.315c-0.159,0 -0.407,-0.142 -0.551,-0.315c-0.144,-0.173 -0.429,-0.315 -0.633,-0.315c-0.205,0 -0.427,-0.142 -0.493,-0.315c-0.071,-0.185 -0.386,-0.315 -0.758,-0.315c-0.426,0 -0.637,-0.105 -0.637,-0.316c0,-0.309 -0.156,-0.374 -0.893,-0.371c-0.202,0.001 -0.367,-0.12 -0.367,-0.27c0,-0.149 -0.276,-0.331 -0.613,-0.405c-0.337,-0.074 -0.657,-0.25 -0.711,-0.39c-0.054,-0.141 -0.412,-0.28 -0.796,-0.309c-0.384,-0.03 -0.851,-0.192 -1.039,-0.362c-0.187,-0.17 -0.738,-0.309 -1.224,-0.309c-0.591,0 -0.923,-0.104 -1.003,-0.315c-0.089,-0.23 -0.453,-0.315 -1.359,-0.315c-0.686,0 -1.238,-0.094 -1.238,-0.21c0,-0.115 -0.19,-0.21 -0.421,-0.21c-0.231,0 -0.42,0.076 -0.42,0.168m-36.975,21.261c0,0.115 0.142,0.21 0.316,0.21c0.173,0 0.315,-0.095 0.315,-0.21c0,-0.116 -0.142,-0.211 -0.315,-0.211c-0.174,0 -0.316,0.095 -0.316,0.211m-2.084,11.278c-0.023,0.632 0.425,1.721 0.558,1.358c0.058,-0.155 0.006,-0.486 -0.115,-0.735c-0.12,-0.248 -0.265,-0.594 -0.322,-0.767c-0.066,-0.2 -0.11,-0.147 -0.121,0.144m0.854,6.865c0.148,0.331 0.307,0.487 0.354,0.347c0.047,-0.14 -0.075,-0.411 -0.27,-0.601c-0.331,-0.325 -0.337,-0.309 -0.084,0.254m-38.929,15.807c0.495,0.346 0.812,0.283 0.567,-0.113c-0.076,-0.123 -0.343,-0.224 -0.593,-0.224l-0.454,0l0.48,0.337m142.89,-0.022c-0.202,0.245 -0.768,0.315 -2.52,0.315c-2.361,0 -3.632,0.153 -3.469,0.417c0.053,0.086 -0.488,0.209 -1.202,0.274c-0.831,0.075 -1.387,0.237 -1.541,0.449c-0.142,0.193 -0.551,0.331 -0.985,0.331c-0.465,0 -0.787,0.117 -0.863,0.315c-0.075,0.195 -0.394,0.315 -0.84,0.315c-0.446,0 -0.765,0.12 -0.84,0.315c-0.067,0.174 -0.337,0.318 -0.601,0.322c-0.263,0.004 -0.662,0.146 -0.887,0.315c-0.224,0.17 -0.578,0.309 -0.787,0.309c-0.209,0 -0.38,0.096 -0.38,0.214c0,0.118 -0.259,0.331 -0.575,0.473c-0.765,0.343 -1.306,0.902 -1.549,1.599c-0.11,0.314 -0.457,0.728 -0.771,0.919c-0.315,0.192 -0.903,0.661 -1.307,1.044c-0.405,0.382 -1.245,1.096 -1.869,1.586c-0.623,0.491 -1.554,1.434 -2.069,2.098c-0.515,0.663 -1,1.253 -1.077,1.31c-0.71,0.526 -3.122,4.04 -4.075,5.935c-0.334,0.665 -0.741,1.208 -0.906,1.208c-0.164,0 -0.298,0.095 -0.298,0.21c0,0.116 -0.13,0.21 -0.288,0.21c-0.179,0 -0.332,0.335 -0.406,0.886c-0.065,0.487 -0.246,0.983 -0.401,1.103c-0.156,0.119 -0.312,0.595 -0.348,1.058c-0.036,0.462 -0.193,0.983 -0.349,1.157c-0.159,0.179 -0.304,0.887 -0.33,1.617c-0.029,0.799 -0.135,1.284 -0.276,1.258c-0.399,-0.072 -0.42,11.14 -0.022,11.748c0.189,0.288 0.319,0.964 0.319,1.656c0,0.845 0.087,1.203 0.315,1.29c0.204,0.079 0.315,0.405 0.315,0.928c0,0.532 0.118,0.874 0.346,1.002c0.191,0.106 0.365,0.465 0.387,0.798c0.023,0.332 0.057,0.77 0.075,0.972c0.018,0.202 0.174,0.368 0.348,0.368c0.21,0 0.315,0.21 0.315,0.63c0,0.42 0.105,0.63 0.315,0.63c0.22,0 0.315,0.222 0.315,0.735c0,0.514 0.095,0.736 0.315,0.736c0.197,0 0.315,0.199 0.315,0.532c0,0.292 0.142,0.586 0.315,0.652c0.174,0.067 0.315,0.35 0.315,0.631c0,0.28 0.142,0.563 0.316,0.63c0.173,0.066 0.315,0.252 0.315,0.413c0,0.161 0.135,0.293 0.301,0.293c0.165,0 0.361,0.189 0.434,0.42c0.073,0.231 0.269,0.42 0.434,0.42c0.166,0 0.301,0.192 0.301,0.427c0,0.235 0.142,0.481 0.315,0.548c0.174,0.066 0.316,0.255 0.316,0.42c0,0.165 0.141,0.354 0.315,0.42c0.173,0.067 0.315,0.253 0.315,0.414c0,0.161 0.142,0.292 0.315,0.292c0.173,0 0.315,0.11 0.315,0.243c0,0.286 1.607,1.858 1.9,1.858c0.11,0 0.201,0.142 0.201,0.315c0,0.174 0.119,0.315 0.265,0.315c0.146,0 0.499,0.284 0.785,0.631c0.288,0.348 0.726,0.63 0.979,0.63c0.296,0 0.618,0.259 0.912,0.735c0.25,0.405 0.579,0.736 0.73,0.736c0.152,0 0.33,0.141 0.396,0.315c0.067,0.173 0.361,0.315 0.653,0.315c0.333,0 0.532,0.118 0.532,0.315c0,0.173 0.149,0.315 0.33,0.315c0.182,0 0.472,0.142 0.645,0.315c0.174,0.174 0.522,0.315 0.775,0.315c0.253,0 0.579,0.19 0.724,0.422c0.219,0.352 0.403,0.4 1.102,0.289c0.783,-0.126 2.556,0.201 3.042,0.56c1.371,1.014 9.029,2.005 13.155,1.703c1.891,-0.138 2.46,-0.116 2.723,0.106c0.469,0.399 1.874,0.373 1.874,-0.033c0,-0.248 0.289,-0.316 1.343,-0.316c1,0 1.374,-0.08 1.464,-0.315c0.069,-0.179 0.382,-0.315 0.729,-0.315c0.335,0 0.834,-0.175 1.11,-0.389c0.275,-0.213 0.624,-0.346 0.776,-0.293c0.151,0.052 0.434,-0.044 0.63,-0.213c0.195,-0.17 0.615,-0.371 0.933,-0.446c0.318,-0.076 0.578,-0.277 0.578,-0.449c0,-0.205 0.213,-0.311 0.63,-0.311c0.42,0 0.63,-0.105 0.63,-0.315c0,-0.207 0.208,-0.315 0.608,-0.315c0.347,0 0.66,-0.135 0.729,-0.315c0.066,-0.173 0.292,-0.315 0.501,-0.315c0.209,0 0.69,-0.284 1.07,-0.63c0.379,-0.347 0.736,-0.631 0.792,-0.631c0.057,0 0.443,-0.331 0.86,-0.735c0.416,-0.404 0.874,-0.735 1.017,-0.735c0.144,0 0.315,-0.142 0.382,-0.315c0.066,-0.174 0.265,-0.316 0.442,-0.316c0.177,0 0.322,-0.141 0.322,-0.315c0,-0.173 0.142,-0.315 0.315,-0.315c0.173,0 0.315,-0.142 0.315,-0.315c0,-0.173 0.131,-0.315 0.291,-0.315c0.16,0 0.433,-0.213 0.607,-0.473c0.173,-0.26 0.562,-0.756 0.864,-1.103c0.302,-0.346 0.549,-0.748 0.549,-0.893c0,-0.144 0.095,-0.262 0.21,-0.262c0.116,0 0.21,-0.142 0.21,-0.315c0,-0.174 0.142,-0.315 0.315,-0.315c0.174,0 0.316,-0.132 0.316,-0.293c0,-0.161 0.141,-0.347 0.315,-0.414c0.173,-0.066 0.315,-0.265 0.315,-0.442c0,-0.177 0.096,-0.322 0.214,-0.322c0.118,0 0.329,-0.26 0.469,-0.578c0.139,-0.317 0.374,-0.653 0.52,-0.745c0.147,-0.093 0.267,-0.265 0.267,-0.383c0,-0.118 0.142,-0.357 0.316,-0.53c0.278,-0.278 0.424,-0.89 0.334,-1.404c-0.016,-0.095 0.068,-0.112 0.187,-0.039c0.119,0.074 0.274,-0.037 0.343,-0.247c0.069,-0.209 0.258,-0.679 0.419,-1.043c0.16,-0.364 0.292,-0.86 0.292,-1.103c0,-0.252 0.135,-0.441 0.315,-0.441c0.214,0 0.315,-0.213 0.315,-0.659c0,-0.363 0.142,-0.765 0.314,-0.893c0.173,-0.128 0.376,-0.706 0.453,-1.284c0.076,-0.577 0.242,-1.118 0.369,-1.2c0.39,-0.253 0.436,-15.319 0.05,-16.184c-0.168,-0.376 -0.357,-1.049 -0.421,-1.497c-0.064,-0.447 -0.262,-0.975 -0.44,-1.172c-0.179,-0.197 -0.325,-0.658 -0.325,-1.024c0,-0.452 -0.101,-0.666 -0.315,-0.666c-0.208,0 -0.315,-0.209 -0.315,-0.616c0,-0.338 -0.142,-0.757 -0.315,-0.93c-0.173,-0.173 -0.315,-0.501 -0.315,-0.728c0,-0.227 -0.142,-0.467 -0.315,-0.533c-0.174,-0.067 -0.315,-0.349 -0.315,-0.627c0,-0.279 -0.142,-0.624 -0.315,-0.768c-0.174,-0.144 -0.316,-0.336 -0.316,-0.427c0,-0.272 -1.11,-1.884 -1.297,-1.884c-0.095,0 -0.173,-0.189 -0.173,-0.42c0,-0.234 -0.14,-0.42 -0.315,-0.42c-0.174,0 -0.315,-0.142 -0.315,-0.315c0,-0.174 -0.136,-0.316 -0.301,-0.316c-0.166,0 -0.361,-0.189 -0.435,-0.42c-0.073,-0.231 -0.215,-0.42 -0.315,-0.42c-0.1,0 -0.247,-0.205 -0.327,-0.456c-0.079,-0.252 -0.229,-0.559 -0.332,-0.683c-0.757,-0.912 -1.243,-1.382 -1.432,-1.382c-0.121,0 -0.22,-0.142 -0.22,-0.315c0,-0.173 -0.089,-0.315 -0.199,-0.315c-0.11,0 -0.455,-0.237 -0.768,-0.527c-0.313,-0.291 -0.611,-0.486 -0.662,-0.435c-0.05,0.05 -0.511,-0.327 -1.023,-0.839c-0.511,-0.512 -1.022,-0.93 -1.135,-0.93c-0.112,0 -0.204,-0.131 -0.204,-0.291c0,-0.262 -0.708,-0.629 -1.103,-0.572c-0.087,0.012 -0.158,-0.057 -0.158,-0.153c0,-0.096 -0.469,-0.404 -1.042,-0.683c-0.573,-0.279 -1.046,-0.625 -1.051,-0.77c-0.004,-0.147 -0.274,-0.262 -0.615,-0.262c-0.347,0 -0.66,-0.136 -0.729,-0.316c-0.067,-0.173 -0.35,-0.315 -0.63,-0.315c-0.281,0 -0.564,-0.141 -0.631,-0.315c-0.069,-0.18 -0.382,-0.315 -0.732,-0.315c-0.336,0 -0.729,-0.142 -0.872,-0.315c-0.144,-0.173 -0.547,-0.315 -0.896,-0.315c-0.348,0 -0.741,-0.147 -0.872,-0.326c-0.139,-0.19 -0.708,-0.376 -1.364,-0.447c-0.619,-0.067 -1.373,-0.25 -1.675,-0.408c-0.373,-0.195 -1.362,-0.29 -3.072,-0.295c-1.881,-0.006 -2.624,-0.086 -2.928,-0.317c-0.529,-0.4 -1.674,-0.396 -2.009,0.007m-153.361,1.471c0,0.173 0.085,0.315 0.188,0.315c0.103,0 0.242,-0.142 0.308,-0.315c0.074,-0.192 0.001,-0.315 -0.187,-0.315c-0.17,0 -0.309,0.141 -0.309,0.315m23.043,1.284c0.061,0.16 0.243,0.291 0.404,0.291c0.437,0 0.353,-0.355 -0.112,-0.477c-0.284,-0.074 -0.371,-0.018 -0.292,0.186m42.101,3.497c0.048,0.03 0.314,0.243 0.59,0.473l0.504,0.418l-0.248,-0.473c-0.137,-0.26 -0.403,-0.472 -0.591,-0.472c-0.189,0 -0.303,0.024 -0.255,0.054m6.495,3.097c0.289,0.226 0.667,0.405 0.84,0.399c0.28,-0.011 0.28,-0.025 0,-0.131c-0.173,-0.066 -0.391,-0.248 -0.483,-0.404c-0.092,-0.156 -0.329,-0.282 -0.525,-0.28c-0.281,0.004 -0.245,0.093 0.168,0.416m-92.805,11.916c-0.144,0.051 -0.262,0.248 -0.262,0.436c0,0.312 0.031,0.311 0.355,-0.012c0.38,-0.38 0.336,-0.577 -0.093,-0.424m63.603,5.632c0,0.17 0.142,0.309 0.315,0.309c0.174,0 0.315,-0.084 0.315,-0.188c0,-0.103 -0.141,-0.242 -0.315,-0.308c-0.192,-0.074 -0.315,0 -0.315,0.187m-3.361,22.263c0,0.192 0.101,0.316 0.226,0.275c0.124,-0.042 0.225,-0.165 0.225,-0.275c0,-0.11 -0.101,-0.234 -0.225,-0.275c-0.125,-0.041 -0.226,0.082 -0.226,0.275m-58.614,0.103c0,0.124 0.142,0.28 0.315,0.346c0.174,0.067 0.323,0.276 0.332,0.466c0.012,0.242 0.05,0.262 0.128,0.067c0.061,-0.153 -0.088,-0.464 -0.332,-0.691c-0.243,-0.227 -0.443,-0.311 -0.443,-0.188m1.605,2.627c0.066,0.172 0.205,0.261 0.308,0.197c0.297,-0.183 0.219,-0.511 -0.12,-0.511c-0.188,0 -0.262,0.123 -0.188,0.314m51.757,4.833c-0.144,0.173 -0.392,0.315 -0.551,0.315c-0.159,0 -0.29,0.139 -0.29,0.308c0,0.416 0.441,0.21 0.903,-0.422c0.41,-0.561 0.363,-0.713 -0.062,-0.201m-43.278,3.893c0,0.119 0.166,0.275 0.368,0.347c0.202,0.072 0.533,0.273 0.735,0.446c0.329,0.282 0.368,0.28 0.368,-0.018c0,-0.183 -0.189,-0.393 -0.42,-0.466c-0.231,-0.074 -0.42,-0.222 -0.42,-0.33c0,-0.108 -0.142,-0.196 -0.316,-0.196c-0.173,0 -0.315,0.098 -0.315,0.217m38.446,0.092c0,0.188 0.123,0.261 0.315,0.187c0.173,-0.066 0.315,-0.205 0.315,-0.308c0,-0.103 -0.142,-0.188 -0.315,-0.188c-0.173,0 -0.315,0.139 -0.315,0.309m-3.059,1.891c-0.346,0.261 -0.355,0.309 -0.062,0.315c0.189,0.003 0.399,-0.135 0.466,-0.309c0.15,-0.391 0.106,-0.392 -0.404,-0.006m-2.521,1.25c-0.224,0.163 -0.36,0.344 -0.302,0.402c0.057,0.057 0.328,-0.077 0.6,-0.298c0.571,-0.463 0.315,-0.552 -0.298,-0.104m-26.849,0.227c0.066,0.173 0.323,0.304 0.571,0.291c0.355,-0.02 0.373,-0.045 0.083,-0.121c-0.203,-0.053 -0.368,-0.184 -0.368,-0.291c0,-0.107 -0.092,-0.194 -0.204,-0.194c-0.112,0 -0.149,0.141 -0.082,0.315m3.437,1.133c0,0.214 0.51,0.442 0.988,0.442c0.264,0 0.276,-0.058 0.063,-0.315c-0.283,-0.34 -1.051,-0.434 -1.051,-0.127m32.185,23.384c-0.442,0.442 -0.274,0.615 0.534,0.548c0.549,-0.046 0.807,-0.176 0.856,-0.433c0.083,-0.439 -0.978,-0.528 -1.39,-0.115m3.463,0.146c0.095,0.363 0.277,0.442 1.024,0.442c1.584,0 1.48,-0.492 -0.156,-0.737c-0.928,-0.139 -0.977,-0.122 -0.868,0.295m91.873,-0.271c-0.173,0.063 -0.504,0.195 -0.735,0.295c-0.231,0.1 -1.245,0.218 -2.253,0.262c-1.336,0.058 -1.937,0.175 -2.222,0.433c-0.26,0.235 -0.754,0.353 -1.483,0.353c-0.778,0 -1.128,0.091 -1.214,0.315c-0.075,0.195 -0.395,0.315 -0.84,0.315c-0.446,0 -0.766,0.12 -0.841,0.315c-0.068,0.178 -0.38,0.316 -0.713,0.316c-0.326,0 -0.744,0.15 -0.928,0.334c-0.183,0.184 -0.465,0.353 -0.625,0.377c-0.405,0.059 -2.311,1.039 -2.397,1.232c-0.038,0.087 -0.204,0.157 -0.367,0.157c-0.164,0 -0.298,0.142 -0.298,0.316c0,0.21 -0.211,0.315 -0.637,0.315c-0.372,0 -0.687,0.131 -0.757,0.315c-0.067,0.173 -0.253,0.315 -0.414,0.315c-0.161,0 -0.293,0.142 -0.293,0.315c0,0.173 -0.101,0.315 -0.225,0.315c-0.124,0 -0.344,0.118 -0.49,0.263c-0.146,0.144 -0.528,0.451 -0.848,0.683c-0.32,0.231 -0.904,0.727 -1.299,1.102c-0.394,0.376 -0.81,0.683 -0.923,0.683c-0.113,0 -0.206,0.142 -0.206,0.315c0,0.174 -0.142,0.316 -0.315,0.316c-0.174,0 -0.316,0.094 -0.316,0.21c0,0.272 -0.777,1.05 -1.05,1.05c-0.115,0 -0.21,0.189 -0.21,0.42c0,0.234 -0.14,0.42 -0.315,0.42c-0.175,0 -0.315,0.187 -0.315,0.421c0,0.24 -0.14,0.42 -0.328,0.42c-0.18,0 -0.269,0.094 -0.197,0.21c0.071,0.115 0.024,0.21 -0.106,0.21c-0.129,0 -0.172,0.101 -0.096,0.224c0.076,0.124 -0.06,0.276 -0.303,0.34c-0.242,0.063 -0.441,0.241 -0.441,0.395c0,0.154 -0.119,0.356 -0.265,0.448c-0.145,0.093 -0.452,0.541 -0.682,0.995c-0.23,0.455 -0.584,0.999 -0.786,1.208c-0.202,0.21 -0.368,0.483 -0.368,0.607c0,0.123 -0.141,0.366 -0.315,0.54c-0.173,0.173 -0.315,0.544 -0.315,0.825c0,0.314 -0.121,0.51 -0.315,0.51c-0.207,0 -0.315,0.208 -0.315,0.605c0,0.332 -0.142,0.722 -0.315,0.866c-0.174,0.144 -0.315,0.584 -0.315,0.978c0,0.442 -0.121,0.762 -0.316,0.837c-0.219,0.084 -0.315,0.426 -0.315,1.126c0,0.7 -0.095,1.042 -0.315,1.126c-0.379,0.146 -0.449,1.815 -0.076,1.815c0.253,0 0.154,2.147 -0.243,5.252c-0.307,2.404 0.521,8.6 1.551,11.615c0.417,1.22 0.418,1.097 -0.005,1.52c-0.326,0.325 -0.326,0.389 0,0.94c0.192,0.325 0.349,0.735 0.349,0.911c0,0.176 0.13,0.451 0.289,0.61c0.16,0.159 0.356,0.591 0.437,0.96c0.081,0.369 0.228,0.671 0.327,0.671c0.098,0 0.236,0.181 0.306,0.401c0.07,0.221 0.406,0.717 0.746,1.103c0.361,0.41 0.621,0.943 0.623,1.28c0.001,0.318 0.097,0.578 0.213,0.578c0.116,0 0.399,0.189 0.63,0.42c0.231,0.231 0.42,0.514 0.42,0.63c0,0.116 0.133,0.21 0.295,0.21c0.162,0 0.393,0.284 0.514,0.63c0.121,0.347 0.319,0.631 0.441,0.631c0.122,0 0.221,0.131 0.221,0.292c0,0.161 0.142,0.347 0.315,0.414c0.173,0.066 0.315,0.266 0.315,0.442c0,0.177 0.142,0.322 0.315,0.322c0.174,0 0.315,0.142 0.315,0.315c0,0.174 0.142,0.315 0.316,0.315c0.173,0 0.315,0.142 0.315,0.316c0,0.173 0.142,0.315 0.315,0.315c0.173,0 0.315,0.097 0.315,0.216c0,0.12 0.158,0.278 0.352,0.352c0.32,0.123 0.555,0.308 1.556,1.227c0.183,0.168 0.443,0.306 0.578,0.306c0.135,0 0.245,0.141 0.245,0.315c0,0.173 0.142,0.315 0.315,0.315c0.174,0 0.315,0.097 0.315,0.216c0,0.12 0.166,0.28 0.368,0.356c0.202,0.077 0.493,0.263 0.645,0.414c0.153,0.151 0.46,0.274 0.683,0.274c0.223,0 0.405,0.142 0.405,0.315c0,0.269 0.358,0.412 0.868,0.349c0.073,-0.009 0.3,0.169 0.505,0.395c0.205,0.227 0.536,0.412 0.735,0.412c0.199,0 0.479,0.142 0.623,0.315c0.144,0.173 0.476,0.315 0.739,0.315c0.262,0 0.531,0.142 0.598,0.315c0.066,0.174 0.367,0.315 0.667,0.315c0.301,0 0.689,0.142 0.862,0.315c0.174,0.174 0.643,0.316 1.042,0.316c0.453,0 0.773,0.119 0.848,0.315c0.087,0.226 0.441,0.315 1.254,0.315c0.623,0 1.133,0.094 1.133,0.21c0,0.136 2.556,0.21 7.248,0.21c4.692,0 7.248,-0.074 7.248,-0.21c0,-0.116 0.455,-0.21 1.01,-0.21c0.563,0 1.191,-0.137 1.418,-0.309c0.225,-0.169 0.704,-0.311 1.065,-0.315c0.361,-0.003 0.775,-0.148 0.919,-0.322c0.144,-0.173 0.523,-0.315 0.843,-0.315c0.324,0 0.636,-0.14 0.703,-0.315c0.067,-0.173 0.349,-0.315 0.627,-0.315c0.279,0 0.624,-0.142 0.768,-0.315c0.144,-0.173 0.483,-0.315 0.754,-0.315c0.276,0 0.59,-0.184 0.715,-0.418c0.123,-0.23 0.292,-0.408 0.375,-0.396c0.495,0.075 0.887,-0.065 0.887,-0.315c0,-0.159 0.29,-0.347 0.644,-0.418c0.358,-0.072 0.586,-0.223 0.513,-0.341c-0.076,-0.123 0.097,-0.213 0.406,-0.213c0.338,0 0.538,-0.117 0.538,-0.315c0,-0.173 0.131,-0.315 0.29,-0.315c0.16,0 0.343,-0.199 0.406,-0.442c0.064,-0.243 0.217,-0.379 0.34,-0.302c0.123,0.076 0.224,0 0.224,-0.169c0,-0.168 0.284,-0.406 0.631,-0.526c0.346,-0.121 0.63,-0.32 0.63,-0.441c0,-0.122 0.098,-0.221 0.217,-0.221c0.119,0 0.494,-0.284 0.833,-0.63c0.339,-0.347 0.714,-0.631 0.833,-0.631c0.12,0 0.218,-0.098 0.218,-0.219c0,-0.254 0.264,-0.596 1.208,-1.566c0.375,-0.385 0.682,-0.798 0.682,-0.918c0,-0.12 0.331,-0.539 0.736,-0.932c0.404,-0.392 0.735,-0.822 0.735,-0.955c0,-0.133 0.118,-0.218 0.263,-0.189c0.148,0.03 0.292,-0.203 0.33,-0.538c0.037,-0.324 0.203,-0.642 0.368,-0.705c0.165,-0.063 0.3,-0.271 0.3,-0.462c0,-0.191 0.189,-0.465 0.42,-0.61c0.231,-0.144 0.42,-0.395 0.42,-0.558c0,-0.163 0.107,-0.331 0.238,-0.375c0.131,-0.044 0.249,-0.382 0.262,-0.752c0.014,-0.371 0.123,-0.674 0.242,-0.674c0.119,0 0.342,-0.426 0.496,-0.946c0.153,-0.52 0.363,-0.945 0.466,-0.945c0.102,0 0.187,-0.323 0.187,-0.718c0,-0.395 0.115,-0.756 0.257,-0.803c0.145,-0.049 0.305,-0.625 0.368,-1.331c0.075,-0.836 0.198,-1.228 0.374,-1.192c0.188,0.038 0.261,-0.353 0.261,-1.401c0,-0.86 0.093,-1.484 0.229,-1.529c0.86,-0.287 0.822,-10.673 -0.039,-10.673c-0.105,0 -0.19,-0.65 -0.19,-1.445c0,-1.028 -0.091,-1.52 -0.315,-1.706c-0.193,-0.161 -0.315,-0.621 -0.315,-1.188c0,-0.63 -0.101,-0.965 -0.315,-1.047c-0.193,-0.074 -0.315,-0.393 -0.315,-0.819c0,-0.384 -0.142,-0.84 -0.316,-1.013c-0.173,-0.173 -0.315,-0.497 -0.315,-0.718c0,-0.222 -0.189,-0.621 -0.42,-0.888c-0.231,-0.266 -0.42,-0.706 -0.42,-0.977c0,-0.271 -0.083,-0.493 -0.185,-0.493c-0.101,0 -0.302,-0.284 -0.445,-0.631c-0.144,-0.346 -0.344,-0.63 -0.446,-0.63c-0.101,0 -0.184,-0.142 -0.184,-0.315c0,-0.173 -0.142,-0.315 -0.316,-0.315c-0.197,0 -0.315,-0.199 -0.315,-0.532c0,-0.324 -0.268,-0.795 -0.683,-1.201c-0.375,-0.368 -0.659,-0.743 -0.63,-0.834c0.029,-0.09 -0.08,-0.164 -0.242,-0.164c-0.162,0 -0.393,-0.284 -0.514,-0.63c-0.121,-0.347 -0.319,-0.631 -0.441,-0.631c-0.121,0 -0.221,-0.131 -0.221,-0.292c0,-0.161 -0.142,-0.347 -0.315,-0.414c-0.173,-0.066 -0.315,-0.266 -0.315,-0.443c0,-0.176 -0.142,-0.321 -0.315,-0.321c-0.174,0 -0.315,-0.142 -0.315,-0.315c0,-0.174 -0.142,-0.315 -0.315,-0.315c-0.174,0 -0.316,-0.142 -0.316,-0.316c0,-0.173 -0.131,-0.315 -0.292,-0.315c-0.161,0 -0.347,-0.142 -0.414,-0.315c-0.066,-0.173 -0.266,-0.315 -0.442,-0.315c-0.177,0 -0.322,-0.146 -0.322,-0.325c0,-0.251 -0.155,-0.297 -0.683,-0.203c-0.588,0.104 -0.873,-0.026 -2.048,-0.93c-0.751,-0.578 -1.466,-1.124 -1.588,-1.214c-0.398,-0.293 -2.287,-1.284 -4.879,-2.558c-0.494,-0.243 -1.044,-0.442 -1.222,-0.442c-0.177,0 -0.529,-0.117 -0.781,-0.259c-0.538,-0.305 -1.976,-0.698 -4.03,-1.104c-1.857,-0.366 -2.775,-0.686 -3.572,-1.243c-0.624,-0.437 -4.467,-0.736 -5.357,-0.418m-86.192,0.841c-0.078,0.077 -0.091,0.222 -0.029,0.321c0.156,0.253 1.137,0.227 1.137,-0.029c0,-0.116 -0.087,-0.21 -0.193,-0.21c-0.106,0 -0.324,-0.05 -0.483,-0.112c-0.16,-0.061 -0.355,-0.048 -0.432,0.03m2.789,0.817c0,0.174 0.186,0.315 0.413,0.315c0.282,0 0.375,-0.1 0.293,-0.315c-0.066,-0.173 -0.253,-0.315 -0.414,-0.315c-0.161,0 -0.292,0.142 -0.292,0.315m3.495,1.261c0.067,0.173 0.253,0.315 0.414,0.315c0.398,0 0.371,-0.345 -0.04,-0.503c-0.474,-0.182 -0.509,-0.165 -0.374,0.188m6.652,3.818c0.076,0.123 -0.042,0.431 -0.261,0.685c-0.22,0.253 -0.459,0.856 -0.531,1.34c-0.154,1.035 -0.642,3.174 -1.069,4.679c-0.167,0.588 -0.303,1.309 -0.303,1.603c0,0.293 -0.142,0.873 -0.315,1.288c-0.173,0.414 -0.315,0.982 -0.315,1.262c0,0.279 -0.135,0.967 -0.3,1.53c-0.307,1.049 -0.87,3.516 -1.479,6.484c-0.19,0.924 -0.482,2.14 -0.649,2.702c-0.167,0.563 -0.303,1.236 -0.303,1.497c0,0.261 -0.142,0.877 -0.315,1.368c-0.174,0.491 -0.316,1.107 -0.316,1.368c0,0.261 -0.133,0.934 -0.296,1.497c-0.162,0.562 -0.499,1.967 -0.748,3.122c-0.249,1.156 -0.544,2.432 -0.655,2.837c-0.112,0.404 -0.291,1.16 -0.397,1.68c-0.374,1.824 -0.661,3.056 -0.954,4.097c-0.163,0.578 -0.333,1.381 -0.377,1.786c-0.045,0.404 -0.199,1.208 -0.343,1.785c-0.785,3.15 -1.265,5.256 -2.131,9.349c-0.134,0.636 -0.374,1.512 -0.533,1.948c-0.158,0.435 -0.288,1.076 -0.288,1.424c0,0.348 -0.142,0.972 -0.315,1.387c-0.489,1.169 -0.428,2.804 0.105,2.804c0.231,0 0.42,-0.095 0.42,-0.21c0,-0.116 0.513,-0.21 1.14,-0.21c0.734,0 1.253,-0.113 1.456,-0.315c0.173,-0.174 0.641,-0.315 1.04,-0.315c0.398,0 0.837,-0.137 0.976,-0.303c0.138,-0.167 0.551,-0.332 0.918,-0.368c0.397,-0.038 0.646,-0.171 0.615,-0.327c-0.03,-0.151 0.159,-0.263 0.447,-0.263c0.274,0 0.617,-0.142 0.761,-0.315c0.144,-0.173 0.479,-0.315 0.746,-0.315c0.266,0 0.635,-0.151 0.819,-0.334c0.183,-0.184 0.45,-0.352 0.592,-0.374c0.447,-0.068 0.796,-0.364 0.67,-0.567c-0.067,-0.108 0.158,-0.196 0.499,-0.196c0.358,0 0.672,-0.133 0.741,-0.315c0.067,-0.173 0.266,-0.315 0.443,-0.315c0.177,0 0.322,-0.142 0.322,-0.315c0,-0.173 0.141,-0.315 0.315,-0.315c0.173,0 0.315,-0.142 0.315,-0.315c0,-0.174 0.17,-0.315 0.379,-0.315c0.208,0 0.7,-0.331 1.091,-0.736c0.392,-0.404 0.836,-0.735 0.987,-0.735c0.151,0 0.274,-0.142 0.274,-0.315c0,-0.174 0.142,-0.315 0.315,-0.315c0.173,0 0.315,-0.142 0.315,-0.315c0,-0.174 0.142,-0.316 0.315,-0.316c0.174,0 0.316,-0.141 0.316,-0.315c0,-0.173 0.118,-0.32 0.262,-0.327c0.293,-0.013 2.325,-2.553 2.431,-3.038c0.038,-0.171 0.203,-0.311 0.368,-0.311c0.165,0 0.3,-0.142 0.3,-0.315c0,-0.174 0.142,-0.315 0.315,-0.315c0.175,0 0.315,-0.187 0.315,-0.421c0,-0.231 0.1,-0.42 0.221,-0.42c0.122,0 0.32,-0.283 0.441,-0.63c0.121,-0.347 0.297,-0.63 0.392,-0.63c0.095,0 0.234,-0.276 0.308,-0.613c0.074,-0.337 0.27,-0.665 0.437,-0.729c0.171,-0.065 0.302,-0.392 0.302,-0.753c0,-0.426 0.104,-0.636 0.315,-0.636c0.208,0 0.315,-0.208 0.315,-0.608c0,-0.347 0.136,-0.66 0.315,-0.729c0.383,-0.147 0.41,-0.829 0.056,-1.396c-0.211,-0.338 -0.195,-0.604 0.085,-1.415c0.19,-0.55 0.407,-1.33 0.482,-1.735c0.076,-0.404 0.221,-0.924 0.323,-1.155c0.71,-1.604 1.006,-7.838 0.529,-11.136c-0.325,-2.245 -0.326,-2.479 -0.018,-2.82c0.19,-0.21 0.296,-0.59 0.243,-0.876c-0.051,-0.277 -0.1,-0.67 -0.108,-0.872c-0.009,-0.202 -0.158,-0.368 -0.331,-0.368c-0.242,0 -0.315,-0.268 -0.315,-1.155c0,-0.887 -0.074,-1.156 -0.315,-1.156c-0.22,0 -0.316,-0.22 -0.316,-0.724c0,-0.406 -0.13,-0.799 -0.296,-0.893c-0.164,-0.093 -0.329,-0.452 -0.368,-0.798c-0.041,-0.366 -0.181,-0.609 -0.333,-0.578c-0.152,0.03 -0.263,-0.16 -0.263,-0.447c0,-0.275 -0.142,-0.617 -0.315,-0.761c-0.174,-0.144 -0.315,-0.523 -0.315,-0.842c0,-0.406 -0.128,-0.613 -0.427,-0.691c-0.234,-0.062 -0.412,-0.191 -0.395,-0.287c0.091,-0.514 -0.055,-0.911 -0.334,-0.911c-0.173,0 -0.315,-0.145 -0.315,-0.322c0,-0.177 -0.142,-0.376 -0.315,-0.443c-0.173,-0.066 -0.315,-0.242 -0.315,-0.391c0,-0.148 -0.142,-0.324 -0.315,-0.391c-0.174,-0.066 -0.315,-0.267 -0.315,-0.446c0,-0.179 -0.331,-0.647 -0.736,-1.04c-0.404,-0.392 -0.735,-0.769 -0.735,-0.836c0,-0.18 -0.813,-0.963 -1.001,-0.963c-0.088,0 -0.253,-0.213 -0.367,-0.473c-0.114,-0.26 -0.42,-0.566 -0.68,-0.68c-0.26,-0.114 -0.473,-0.327 -0.473,-0.473c0,-0.146 -0.098,-0.265 -0.217,-0.265c-0.12,0 -0.474,-0.261 -0.788,-0.581c-0.653,-0.664 -2.082,-1.716 -1.873,-1.378m-49.503,11.343c-0.242,0.241 -0.153,0.49 0.175,0.49c0.173,0 0.315,-0.142 0.315,-0.315c0,-0.328 -0.248,-0.417 -0.49,-0.175m-0.78,1.768c-0.129,0.241 -0.179,0.494 -0.112,0.561c0.067,0.067 0.122,0.018 0.122,-0.108c0,-0.127 0.148,-0.379 0.33,-0.561c0.181,-0.181 0.232,-0.33 0.112,-0.33c-0.119,0 -0.323,0.197 -0.452,0.438m-2.594,9.138c-0.197,0.514 -0.154,0.582 0.188,0.298c0.349,-0.29 0.418,-0.63 0.127,-0.63c-0.103,0 -0.245,0.15 -0.315,0.332m0,9.209c0.07,0.183 0.22,0.333 0.333,0.333c0.276,0 0.103,-0.478 -0.211,-0.582c-0.154,-0.051 -0.2,0.045 -0.122,0.249" id="path3"/>
   <path fill-rule="evenodd" fill="#ec7204" d="m120.90038,3.08c0.144,0.059 0.262,0.24 0.262,0.404c0,0.164 0.098,0.298 0.218,0.298c0.147,0 0.145,-0.136 -0.008,-0.421c-0.123,-0.231 -0.339,-0.412 -0.48,-0.403c-0.192,0.012 -0.19,0.042 0.008,0.122m17.792,26.294c0.055,0.37 0.374,0.422 0.489,0.079c0.036,-0.11 -0.07,-0.252 -0.237,-0.316c-0.199,-0.076 -0.286,0.005 -0.252,0.237m0.133,7.057c-0.168,0.203 -0.177,0.339 -0.026,0.432c0.121,0.075 0.228,0.107 0.236,0.072c0.204,-0.824 0.154,-0.944 -0.21,-0.504m-2.096,6.753c-0.242,0.411 -0.441,0.842 -0.441,0.957c0,0.483 -1.951,4.544 -2.815,5.859c-1.382,2.102 -3.271,4.4 -5.223,6.353c-0.901,0.902 -1.436,1.613 -1.464,1.946c-0.024,0.289 -0.159,0.525 -0.3,0.525c-0.141,0 -0.315,0.093 -0.385,0.207c-0.072,0.116 0.016,0.162 0.197,0.105c1.094,-0.344 1.067,-0.324 0.741,-0.531c-0.21,-0.132 -0.225,-0.196 -0.047,-0.198c0.144,-0.002 0.263,-0.108 0.263,-0.235c0,-0.127 0.596,-0.813 1.325,-1.523c0.729,-0.711 1.698,-1.759 2.153,-2.329c0.456,-0.571 0.97,-1.186 1.144,-1.368c0.403,-0.424 1.763,-2.329 1.957,-2.742c0.081,-0.173 0.335,-0.599 0.564,-0.945c0.228,-0.347 0.471,-0.772 0.539,-0.946c0.068,-0.173 0.437,-0.977 0.82,-1.785c1.021,-2.159 1.372,-3.023 1.372,-3.376c0,-0.173 0.212,-0.4 0.472,-0.504c0.47,-0.189 0.47,-0.19 0.021,-0.204c-0.303,-0.009 -0.597,0.233 -0.893,0.734m24.589,16.288c-0.273,0.221 -0.41,0.402 -0.303,0.402c0.281,0 1.026,-0.578 0.903,-0.7c-0.057,-0.057 -0.328,0.077 -0.6,0.298m-1.5,1.114c0,0.161 -0.583,0.799 -1.295,1.418c-0.712,0.62 -1.447,1.268 -1.632,1.441c-0.186,0.174 -0.839,0.713 -1.452,1.199c-0.613,0.485 -1.398,1.242 -1.746,1.68c-1.427,1.801 -1.995,2.5 -2.603,3.206c-0.807,0.937 -1.752,2.37 -2.175,3.296c-0.113,0.249 -0.306,0.515 -0.429,0.59c-0.123,0.076 -0.223,0.323 -0.223,0.548c0,0.225 -0.189,0.572 -0.42,0.77c-0.493,0.422 -0.54,0.686 -0.122,0.686c0.165,0 0.572,-0.543 0.906,-1.208c0.953,-1.895 3.365,-5.409 4.075,-5.935c0.077,-0.057 0.562,-0.647 1.077,-1.31c0.515,-0.664 1.446,-1.607 2.069,-2.098c0.624,-0.49 1.464,-1.204 1.869,-1.586c0.404,-0.383 0.994,-0.854 1.311,-1.046c0.317,-0.193 0.677,-0.656 0.8,-1.028c0.123,-0.373 0.336,-0.724 0.474,-0.78c0.138,-0.056 0.086,-0.109 -0.117,-0.118c-0.202,-0.009 -0.367,0.115 -0.367,0.275m38.655,1.868c0,0.072 0.236,0.368 0.525,0.657c0.289,0.289 0.526,0.452 0.526,0.361c0,-0.09 -0.237,-0.385 -0.526,-0.657c-0.289,-0.271 -0.525,-0.434 -0.525,-0.361m-88.563,3.604c-0.362,0.268 -0.366,0.296 -0.038,0.25c0.41,-0.057 0.999,-0.552 0.658,-0.552c-0.116,0 -0.395,0.136 -0.62,0.302m98.017,8.438c0,0.063 0.142,0.256 0.315,0.429c0.273,0.273 0.315,0.274 0.315,0.007c0,-0.169 -0.142,-0.362 -0.315,-0.428c-0.173,-0.067 -0.315,-0.07 -0.315,-0.008m-144.101,0.647c-0.015,0.218 0.528,0.907 0.714,0.907c0.039,0 0.021,-0.188 -0.039,-0.417c-0.06,-0.23 -0.185,-0.371 -0.277,-0.314c-0.093,0.057 -0.217,-0.015 -0.275,-0.16c-0.074,-0.184 -0.112,-0.189 -0.123,-0.016m93.733,39.918c0.202,0.053 0.368,0.231 0.368,0.396c0,0.164 0.098,0.299 0.217,0.299c0.148,0 0.145,-0.135 -0.007,-0.42c-0.124,-0.231 -0.387,-0.409 -0.585,-0.396c-0.332,0.023 -0.332,0.032 0.007,0.121m6.521,3.977c0.071,0.072 0.631,0.253 1.243,0.403c1.202,0.295 2.186,0.617 3.273,1.07c0.379,0.158 0.973,0.287 1.32,0.287c0.346,0 0.959,0.138 1.362,0.306c1.663,0.695 12.563,0.897 11.819,0.219c-0.204,-0.186 -0.896,-0.205 -2.666,-0.074c-4.197,0.311 -10.624,-0.516 -13.155,-1.691c-1.16,-0.539 -3.614,-0.938 -3.196,-0.52m-106.518,24.81c0.32,0.049 0.792,0.047 1.051,-0.003c0.258,-0.05 -0.003,-0.089 -0.581,-0.087c-0.578,0.001 -0.789,0.042 -0.47,0.09m99.256,0.697c0.278,0.247 1.566,0.637 3.105,0.941c2.054,0.406 3.492,0.799 4.03,1.104c0.252,0.142 0.604,0.259 0.781,0.259c0.178,0 0.728,0.199 1.222,0.442c2.592,1.274 4.481,2.265 4.879,2.558c0.122,0.09 0.837,0.633 1.588,1.206c1.399,1.068 1.762,1.198 2.311,0.826c0.234,-0.158 0.167,-0.179 -0.261,-0.079c-0.421,0.097 -0.611,0.043 -0.705,-0.204c-0.071,-0.186 -0.261,-0.337 -0.422,-0.337c-0.161,0 -0.293,-0.084 -0.293,-0.185c0,-0.229 -3.133,-2.321 -4.412,-2.946c-0.52,-0.254 -1.087,-0.541 -1.26,-0.638c-0.174,-0.097 -0.646,-0.32 -1.051,-0.496c-0.68,-0.295 -1.161,-0.477 -3.151,-1.192c-0.404,-0.146 -1.255,-0.378 -1.891,-0.517c-0.635,-0.139 -1.297,-0.31 -1.47,-0.38c-0.492,-0.201 -3.183,-0.525 -3,-0.362m-66.529,26.137c-0.197,0.238 -0.175,0.836 0.101,2.747c0.476,3.292 0.179,9.528 -0.53,11.13c-0.102,0.231 -0.247,0.751 -0.323,1.155c-0.075,0.405 -0.286,1.168 -0.468,1.697c-0.205,0.593 -0.267,1.116 -0.162,1.366c0.188,0.444 0.162,0.51 0.814,-2.048c0.166,-0.655 0.374,-1.306 0.461,-1.447c0.087,-0.14 0.231,-0.833 0.319,-1.54c0.089,-0.706 0.262,-1.662 0.385,-2.124c0.291,-1.092 0.283,-7.286 -0.011,-8.509c-0.126,-0.52 -0.24,-1.347 -0.254,-1.838c-0.014,-0.491 -0.038,-0.893 -0.053,-0.893c-0.015,0 -0.14,0.137 -0.279,0.304m30.384,1.009c-0.06,0.607 -0.214,2.143 -0.343,3.414c-0.302,2.978 0.152,8.013 0.929,10.302c0.178,0.524 0.323,1.123 0.323,1.333c0,0.209 0.151,0.682 0.335,1.051c0.184,0.369 0.281,0.809 0.217,0.978c-0.065,0.168 -0.037,0.307 0.063,0.307c0.378,0 0.415,-0.678 0.088,-1.634c-1.026,-3.002 -1.853,-9.203 -1.547,-11.602c0.38,-2.976 0.494,-5.252 0.262,-5.252c-0.12,0 -0.268,0.497 -0.327,1.103m-37.155,27.205c-0.593,0.69 -0.662,1.002 -0.089,0.398c0.315,-0.331 0.534,-0.639 0.489,-0.684c-0.046,-0.046 -0.226,0.083 -0.4,0.286" id="path4"/>
  </g>
 </g>
</svg>