<?xml version="1.0" encoding="UTF-8" standalone="no"?>
<svg
   xmlns:dc="http://purl.org/dc/elements/1.1/"
   xmlns:cc="http://creativecommons.org/ns#"
   xmlns:rdf="http://www.w3.org/1999/02/22-rdf-syntax-ns#"
   xmlns:svg="http://www.w3.org/2000/svg"
   xmlns="http://www.w3.org/2000/svg"
   viewBox="0 0 486.66666 486.66666"
   height="486.66666"
   width="486.66666"
   xml:space="preserve"
   id="svg2"
   version="1.1"><metadata
     id="metadata8"><rdf:RDF><cc:Work
         rdf:about=""><dc:format>image/svg+xml</dc:format><dc:type
           rdf:resource="http://purl.org/dc/dcmitype/StillImage" /></cc:Work></rdf:RDF></metadata><defs
     id="defs6" /><g
     transform="matrix(1.3333333,0,0,-1.3333333,0,486.66667)"
     id="g10"><g
       transform="scale(0.1)"
       id="g12"><path
         id="path14"
         style="fill:#3b76c4;fill-opacity:1;fill-rule:nonzero;stroke:none"
         d="M 0,1825 V 0 H 3650 V 3650 H 1825 0 V 1825" /><path
         id="path16"
         style="fill:#ffffff;fill-opacity:1;fill-rule:nonzero;stroke:none"
         d="m 807.152,1812.89 -1.16,-149.47 H 1281.07 V 313.5 h 168.02 168.01 v 674.961 674.959 h 237.54 237.54 V 1810 c 0,81.11 -1.74,148.89 -4.05,150.63 -1.74,2.32 -290.84,3.48 -641.36,2.9 l -637.879,-1.74 -1.739,-148.9" /><path
         id="path18"
         style="fill:#ffffff;fill-opacity:1;fill-rule:nonzero;stroke:none"
         d="m 2945.19,1966.03 c 92.7,-23.17 163.38,-64.31 228.27,-131.51 33.6,-35.92 83.43,-101.39 87.48,-117.03 1.16,-4.64 -157.58,-111.24 -253.76,-170.92 -3.48,-2.31 -17.38,12.75 -33.02,35.92 -46.93,68.37 -96.18,97.92 -171.5,103.13 -110.65,7.53 -181.92,-50.4 -181.34,-147.16 0,-28.39 4.06,-45.19 15.65,-68.36 24.33,-50.41 69.52,-80.54 211.46,-141.95 261.3,-112.39 373.12,-186.55 442.64,-292 77.63,-117.611 95.02,-305.318 42.29,-444.951 -57.93,-151.789 -201.62,-254.918 -403.81,-289.097 -62.58,-11.012 -210.89,-9.274 -278.1,2.886 -146.58,26.082 -285.63,98.5 -371.37,193.512 -33.61,37.082 -99.07,133.832 -95.02,140.789 1.74,2.313 16.8,11.582 33.6,21.43 16.23,9.269 77.64,44.609 135.58,78.222 l 104.86,60.829 22.02,-32.438 c 30.7,-46.934 97.91,-111.242 138.46,-132.684 116.46,-61.41 276.36,-52.718 355.16,17.961 33.6,30.711 47.5,62.571 47.5,109.5 0,42.301 -5.21,60.84 -27.23,92.7 -28.39,40.562 -86.32,74.742 -250.86,146.001 -188.3,81.11 -269.41,131.52 -343.56,211.47 -42.88,46.35 -83.43,120.51 -100.24,182.5 -13.9,51.56 -17.38,180.76 -6.37,232.9 38.82,181.92 176.13,308.81 374.27,346.46 64.31,12.17 213.79,7.54 276.94,-8.11" /></g></g></svg>