<?xml version="1.0" encoding="UTF-8" standalone="no"?>
<svg
   xmlns:dc="http://purl.org/dc/elements/1.1/"
   xmlns:cc="http://creativecommons.org/ns#"
   xmlns:rdf="http://www.w3.org/1999/02/22-rdf-syntax-ns#"
   xmlns:svg="http://www.w3.org/2000/svg"
   xmlns="http://www.w3.org/2000/svg"
   viewBox="0 0 486.66666 503.02667"
   height="503.02667"
   width="486.66666"
   xml:space="preserve"
   id="svg2"
   version="1.1"><metadata
     id="metadata8"><rdf:RDF><cc:Work
         rdf:about=""><dc:format>image/svg+xml</dc:format><dc:type
           rdf:resource="http://purl.org/dc/dcmitype/StillImage" /></cc:Work></rdf:RDF></metadata><defs
     id="defs6" /><g
     transform="matrix(1.3333333,0,0,-1.3333333,0,503.02667)"
     id="g10"><g
       transform="scale(0.1)"
       id="g12"><path
         id="path14"
         style="fill:#ffffff;fill-opacity:1;fill-rule:nonzero;stroke:none"
         d="M 2689.19,0 1287.43,1360.48 457.859,729 0,958.68 0.351563,2811.92 459.633,3042.91 1289.84,2410.93 2688.17,3772.69 3649.67,3387.27 3650,383.961 2689.19,0" /><path
         id="path16"
         style="fill:#5f247b;fill-opacity:1;fill-rule:nonzero;stroke:none"
         d="m 1824.85,1888.18 810.72,606.07 0.32,-1216.87 z m -1297.354,-367.21 -0.484,728.96 405.515,-362.02 z m 2878.884,1701.69 -661.83,265.3 -1435.22,-1397.65 -876.142,666.94 -189.551,-95.33 -0.301,-1553.11 187.937,-94.27 875.377,666.35 1438.77,-1396.402 661.26,264.242 -0.3,2673.93" /></g></g></svg>